<svg width="79" height="78" fill="none" xmlns="http://www.w3.org/2000/svg"><circle cx="39.5" cy="39" r="39" fill="#FFCA42"/><path d="M51.369 39.633c0-.925.875-1.002.875-1.002h1.688v17.981H52.65c-1.354 0-1.281-.975-1.281-.975V39.633zm-22.479 0v16.004s.074.975-1.28.975h-1.282V38.631h1.684s.879.077.879 1.002z" fill="#333"/><path d="M22.008 39.121v-7.498c0-4.454 1.91-8.632 5.38-11.757 3.413-3.075 7.938-4.77 12.74-4.77 4.803 0 9.33 1.696 12.74 4.77 3.473 3.13 5.383 7.303 5.383 11.757v7.498c1.25.522 2.636 1.588 2.636 3.75v9.48s-.115 4.261-4.048 4.261h-2.047v-17.98h.897v-7.009c0-7.624-6.98-13.829-15.56-13.829S24.57 24 24.57 31.623v7.008h.896v17.981h-2.05c-3.932 0-4.048-4.261-4.048-4.261v-9.48c.004-2.162 1.391-3.226 2.64-3.75z" fill="#333"/></svg>