<?xml version="1.0" standalone="no"?>
<!DOCTYPE svg PUBLIC "-//W3C//DTD SVG 20010904//EN"
 "http://www.w3.org/TR/2001/REC-SVG-20010904/DTD/svg10.dtd">
<svg version="1.0" xmlns="http://www.w3.org/2000/svg"
 width="592.000000pt" height="592.000000pt" viewBox="0 0 592.000000 592.000000"
 preserveAspectRatio="xMidYMid meet">
<metadata>
Created by potrace 1.14, written by Peter Selinger 2001-2017
</metadata>
<g transform="translate(0.000000,592.000000) scale(0.100000,-0.100000)"
fill="#000000" stroke="none">
<path d="M1489 5836 c-2 -2 -20 -6 -39 -9 -19 -2 -59 -14 -87 -26 -194 -77
-335 -259 -358 -461 -9 -73 -8 -3379 0 -3450 7 -64 30 -139 57 -193 10 -21 16
-43 12 -49 -4 -6 -3 -8 2 -5 6 3 21 -12 34 -34 14 -21 28 -39 32 -39 5 0 8 -7
8 -17 0 -9 2 -14 5 -11 3 3 23 -11 43 -31 46 -45 85 -72 142 -98 62 -28 82
-36 103 -38 9 -2 18 -3 20 -5 13 -11 478 -17 496 -6 5 4 12 3 14 -2 3 -4 27
-7 54 -5 83 3 232 5 261 4 39 -3 82 -3 122 -2 151 4 296 -1 309 -12 11 -9 13
-9 8 0 -10 16 932 16 952 0 12 -9 13 -9 7 0 -5 10 15 13 86 13 114 0 120 0
161 -1 17 -1 52 -1 77 0 107 1 186 2 198 2 41 -3 82 -3 122 -2 25 1 168 0 317
-1 l273 -3 1 120 c1 150 0 178 -12 190 -6 6 -9 6 -9 0 0 -6 -413 -9 -1108 -7
-609 2 -1119 3 -1134 2 -16 0 -36 -1 -45 -1 -19 0 -1021 -1 -1038 -1 -150 5
-274 142 -277 308 -1 50 29 154 44 154 4 0 8 6 8 14 0 15 73 80 85 76 4 -1 11
4 15 10 22 36 70 37 1778 36 921 -1 1678 2 1684 5 11 7 14 3552 3 3569 -6 9
-3417 15 -3426 6z m102 -693 c0 -213 -1 -390 -1 -393 -4 -20 0 -152 5 -160 3
-5 1 -10 -5 -10 -6 0 -8 -5 -4 -12 7 -11 9 -77 4 -103 -1 -5 -2 -14 0 -20 4
-24 2 -167 -3 -172 -3 -3 -2 -16 3 -29 6 -14 6 -26 -1 -29 -5 -4 -7 -10 -4
-14 2 -5 5 -159 5 -344 l1 -334 30 2 c16 1 32 -1 35 -6 3 -5 11 -6 17 -2 18
11 51 10 59 -2 5 -6 8 -6 8 0 0 6 30 10 73 10 77 0 70 -4 166 82 19 17 39 29
45 26 5 -4 6 -1 1 7 -4 7 -3 15 3 19 15 9 79 63 132 111 24 22 48 40 52 40 4
0 8 7 8 15 0 8 4 15 10 15 5 0 28 18 51 40 23 22 45 40 48 40 3 0 27 -19 52
-42 25 -24 77 -70 114 -103 235 -207 280 -250 278 -265 -1 -13 0 -13 10 1 13
17 67 21 67 5 0 -7 3 -8 8 -1 9 13 115 14 124 0 5 -7 8 -7 8 0 0 6 9 11 20 12
12 1 18 -3 14 -9 -4 -7 0 -7 13 1 11 6 23 7 27 4 6 -7 7 74 6 486 0 190 3 258
12 269 8 10 9 13 1 9 -8 -5 -11 109 -11 453 0 349 2 459 11 453 9 -5 9 -3 0 8
-8 10 -12 67 -12 177 l-1 162 58 1 c329 3 1483 0 1489 -4 10 -6 9 -419 -1
-435 -4 -7 -3 -12 2 -12 10 0 9 -101 -2 -118 -3 -6 -3 -13 1 -15 10 -6 9
-1249 0 -1264 -4 -7 -4 -14 0 -16 10 -6 9 -609 0 -624 -4 -7 -4 -14 0 -16 10
-6 9 -300 -1 -316 -4 -6 -3 -11 1 -11 7 0 9 -82 4 -145 -1 -7 -525 -11 -1568
-11 -1434 -1 -1573 -3 -1623 -18 -30 -9 -61 -17 -67 -18 -7 -1 -13 -5 -13 -9
0 -3 -10 -9 -22 -13 -13 -3 -25 -7 -27 -8 -9 -6 -6 717 2 730 6 7 6 12 1 12
-5 0 -9 37 -8 83 1 64 4 81 15 79 11 -2 11 0 -1 10 -22 18 -21 234 1 230 11
-2 11 0 -1 10 -21 18 -21 114 0 110 13 -2 13 -1 0 10 -21 18 -20 114 1 110 11
-2 11 0 -1 10 -21 18 -21 114 0 110 13 -2 13 -1 0 10 -21 18 -20 114 1 110 11
-2 11 0 -1 10 -21 18 -21 114 0 110 13 -2 13 -1 0 10 -20 17 -23 37 -9 54 6 8
7 14 3 14 -5 0 -9 37 -8 83 1 65 4 81 15 79 11 -2 11 0 -1 10 -18 16 -21 113
-3 113 6 0 15 4 20 8 4 5 3 8 -2 7 -6 -1 -14 -2 -20 -1 -11 1 -12 251 -1 269
4 7 4 12 -1 12 -4 0 -7 100 -7 223 1 218 2 224 27 272 30 59 66 99 110 122 40
21 139 43 151 33 4 -5 8 -183 7 -397z m1180 378 c7 -86 2 -728 -5 -723 -5 3
-6 -1 -1 -9 7 -11 15 -859 8 -859 -1 0 -13 10 -26 23 -14 12 -46 40 -72 62
-26 22 -62 54 -79 70 -17 17 -63 57 -101 90 -39 33 -87 76 -108 95 -65 59 -46
67 -208 -81 -41 -37 -84 -76 -96 -86 -106 -93 -149 -131 -169 -151 -13 -13
-24 -19 -25 -15 -1 18 0 529 1 538 2 6 2 12 1 15 -2 5 -3 981 -2 1027 l1 22
440 -1 c396 -1 440 -3 441 -17z"/>
<path d="M1450 4176 c0 -2 8 -10 18 -17 15 -13 16 -12 3 4 -13 16 -21 21 -21
13z"/>
<path d="M2075 3600 c-3 -5 -1 -10 4 -10 6 0 11 5 11 10 0 6 -2 10 -4 10 -3 0
-8 -4 -11 -10z"/>
<path d="M2036 3482 c-3 -5 1 -9 9 -9 8 0 12 4 9 9 -3 4 -7 8 -9 8 -2 0 -6 -4
-9 -8z"/>
<path d="M1464 3362 c4 -3 14 -7 22 -8 9 -1 13 0 10 4 -4 3 -14 7 -22 8 -9 1
-13 0 -10 -4z"/>
<path d="M2590 3319 c0 -5 5 -7 10 -4 6 3 10 8 10 11 0 2 -4 4 -10 4 -5 0 -10
-5 -10 -11z"/>
<path d="M2030 3279 c0 -5 5 -7 10 -4 6 3 10 8 10 11 0 2 -4 4 -10 4 -5 0 -10
-5 -10 -11z"/>
<path d="M1716 3242 c-3 -5 1 -9 9 -9 8 0 12 4 9 9 -3 4 -7 8 -9 8 -2 0 -6 -4
-9 -8z"/>
<path d="M2133 3195 c0 -8 4 -12 9 -9 5 3 6 10 3 15 -9 13 -12 11 -12 -6z"/>
<path d="M2015 4960 c3 -5 8 -10 11 -10 2 0 4 5 4 10 0 6 -5 10 -11 10 -5 0
-7 -4 -4 -10z"/>
<path d="M4275 1960 c-3 -5 -1 -10 4 -10 6 0 11 5 11 10 0 6 -2 10 -4 10 -3 0
-8 -4 -11 -10z"/>
<path d="M2113 1085 c0 -8 4 -12 9 -9 5 3 6 10 3 15 -9 13 -12 11 -12 -6z"/>
</g>
</svg>
