<svg width="24" height="23" viewBox="0 0 24 23" fill="none" xmlns="http://www.w3.org/2000/svg">
<path d="M15.7915 7.12484L19.5831 3.33317M21.7498 1.1665L19.5831 3.33317L21.7498 1.1665ZM11.339 11.5773C11.8983 12.1293 12.343 12.7864 12.6474 13.5109C12.9517 14.2353 13.1098 15.0129 13.1124 15.7987C13.1151 16.5845 12.9622 17.3631 12.6627 18.0896C12.3632 18.8161 11.923 19.4762 11.3673 20.0318C10.8116 20.5875 10.1516 21.0277 9.42505 21.3272C8.69855 21.6267 7.91998 21.7796 7.13416 21.7769C6.34835 21.7743 5.57081 21.6163 4.84633 21.3119C4.12185 21.0075 3.46473 20.5629 2.91281 20.0035C1.82745 18.8798 1.22688 17.3747 1.24046 15.8124C1.25404 14.2502 1.88067 12.7557 2.98539 11.651C4.09011 10.5463 5.58454 9.91965 7.14679 9.90607C8.70905 9.8925 10.2141 10.4931 11.3379 11.5784L11.339 11.5773ZM11.339 11.5773L15.7915 7.12484L11.339 11.5773ZM15.7915 7.12484L19.0415 10.3748L22.8331 6.58317L19.5831 3.33317L15.7915 7.12484Z" stroke="#FFCA42" stroke-width="2" stroke-linecap="round" stroke-linejoin="round"/>
</svg>
