<svg xmlns="http://www.w3.org/2000/svg">
    <symbol id="logo" width="26" height="29" viewBox="0 0 26 29">
        <path d="M4.31348 22.9H25.25V0.5H4.2557C2.32228 0.506417 0.756356 2.08725 0.75 4.03908V24.6646H0.750578C0.750578 24.6733 0.75 24.6821 0.75 24.6908C0.75 26.7558 2.35521 28.5 4.2557 28.5H25.25V26.6333H4.2557C3.38895 26.6333 2.59906 25.7076 2.59906 24.6908C2.59906 23.7202 3.38433 22.9 4.31348 22.9ZM6.29717 2.38592H11.8443V12.4671L9.04764 9.9885L6.29717 12.4525V2.38592ZM2.59906 4.05367C2.59617 3.12617 3.33695 2.37192 4.2557 2.36667H4.44811H6.29717H4.44811V14.9667H6.27637L9.05458 12.4782L11.8617 14.9667H13.6934V2.36667H23.4009V21.0333H6.30179H4.45274H4.31348C3.71196 21.0333 3.12141 21.192 2.59963 21.493V4.05367H2.59906Z"/>
    </symbol>

    <symbol id="facebook" width="10" height="17" viewBox="0 0 10 17">
        <path d="M8.71875 9.5H6.375V16.5H3.25V9.5H0.6875V6.625H3.25V4.40625C3.25 1.90625 4.75 0.5 7.03125 0.5C8.125 0.5 9.28125 0.71875 9.28125 0.71875V3.1875H8C6.75 3.1875 6.375 3.9375 6.375 4.75V6.625H9.15625L8.71875 9.5Z"/>
    </symbol>

    <symbol id="twitter" width="16" height="13" viewBox="0 0 16 13">
        <path d="M14.3438 3.25C14.3438 3.40625 14.3438 3.53125 14.3438 3.6875C14.3438 8.03125 11.0625 13 5.03125 13C3.15625 13 1.4375 12.4688 0 11.5312C0.25 11.5625 0.5 11.5938 0.78125 11.5938C2.3125 11.5938 3.71875 11.0625 4.84375 10.1875C3.40625 10.1562 2.1875 9.21875 1.78125 7.90625C2 7.9375 2.1875 7.96875 2.40625 7.96875C2.6875 7.96875 3 7.90625 3.25 7.84375C1.75 7.53125 0.625 6.21875 0.625 4.625V4.59375C1.0625 4.84375 1.59375 4.96875 2.125 5C1.21875 4.40625 0.65625 3.40625 0.65625 2.28125C0.65625 1.65625 0.8125 1.09375 1.09375 0.625C2.71875 2.59375 5.15625 3.90625 7.875 4.0625C7.8125 3.8125 7.78125 3.5625 7.78125 3.3125C7.78125 1.5 9.25 0.03125 11.0625 0.03125C12 0.03125 12.8438 0.40625 13.4688 1.0625C14.1875 0.90625 14.9062 0.625 15.5312 0.25C15.2812 1.03125 14.7812 1.65625 14.0938 2.0625C14.75 2 15.4062 1.8125 15.9688 1.5625C15.5312 2.21875 14.9688 2.78125 14.3438 3.25Z"/>
    </symbol>

    <symbol id="linkedin" width="14" height="15" viewBox="0 0 14 15">
        <path d="M3.125 14.5H0.21875V5.15625H3.125V14.5ZM1.65625 3.90625C0.75 3.90625 0 3.125 0 2.1875C0 1.28125 0.75 0.53125 1.65625 0.53125C2.59375 0.53125 3.34375 1.28125 3.34375 2.1875C3.34375 3.125 2.59375 3.90625 1.65625 3.90625ZM13.9688 14.5H11.0938V9.96875C11.0938 8.875 11.0625 7.5 9.5625 7.5C8.0625 7.5 7.84375 8.65625 7.84375 9.875V14.5H4.9375V5.15625H7.71875V6.4375H7.75C8.15625 5.71875 9.09375 4.9375 10.5 4.9375C13.4375 4.9375 14 6.875 14 9.375V14.5H13.9688Z"/>
    </symbol>

    <symbol id="cart" width="24" height="24" viewBox="0 0 24 24">
        <path d="M1 1.75H5L7.68 15.14C7.77144 15.6004 8.02191 16.014 8.38755 16.3083C8.75318 16.6026 9.2107 16.759 9.68 16.75H19.4C19.8693 16.759 20.3268 16.6026 20.6925 16.3083C21.0581 16.014 21.3086 15.6004 21.4 15.14L23 6.75H6M10 21.75C10 22.3023 9.55228 22.75 9 22.75C8.44772 22.75 8 22.3023 8 21.75C8 21.1977 8.44772 20.75 9 20.75C9.55228 20.75 10 21.1977 10 21.75ZM21 21.75C21 22.3023 20.5523 22.75 20 22.75C19.4477 22.75 19 22.3023 19 21.75C19 21.1977 19.4477 20.75 20 20.75C20.5523 20.75 21 21.1977 21 21.75Z" stroke-width="2" stroke-linecap="round" stroke-linejoin="round"/>
    </symbol>
</svg>

