<svg xmlns="http://www.w3.org/2000/svg">
    <symbol id="logo" width="26" height="29" viewBox="0 0 26 29">
        <path d="M4.31348 22.9H25.25V0.5H4.2557C2.32228 0.506417 0.756356 2.08725 0.75 4.03908V24.6646H0.750578C0.750578 24.6733 0.75 24.6821 0.75 24.6908C0.75 26.7558 2.35521 28.5 4.2557 28.5H25.25V26.6333H4.2557C3.38895 26.6333 2.59906 25.7076 2.59906 24.6908C2.59906 23.7202 3.38433 22.9 4.31348 22.9ZM6.29717 2.38592H11.8443V12.4671L9.04764 9.9885L6.29717 12.4525V2.38592ZM2.59906 4.05367C2.59617 3.12617 3.33695 2.37192 4.2557 2.36667H4.44811H6.29717H4.44811V14.9667H6.27637L9.05458 12.4782L11.8617 14.9667H13.6934V2.36667H23.4009V21.0333H6.30179H4.45274H4.31348C3.71196 21.0333 3.12141 21.192 2.59963 21.493V4.05367H2.59906Z"/>
    </symbol>

    <symbol id="facebook" width="10" height="17" viewBox="0 0 10 17">
        <path d="M8.71875 9.5H6.375V16.5H3.25V9.5H0.6875V6.625H3.25V4.40625C3.25 1.90625 4.75 0.5 7.03125 0.5C8.125 0.5 9.28125 0.71875 9.28125 0.71875V3.1875H8C6.75 3.1875 6.375 3.9375 6.375 4.75V6.625H9.15625L8.71875 9.5Z"/>
    </symbol>

    <symbol id="twitter" width="16" height="13" viewBox="0 0 16 13">
        <path d="M14.3438 3.25C14.3438 3.40625 14.3438 3.53125 14.3438 3.6875C14.3438 8.03125 11.0625 13 5.03125 13C3.15625 13 1.4375 12.4688 0 11.5312C0.25 11.5625 0.5 11.5938 0.78125 11.5938C2.3125 11.5938 3.71875 11.0625 4.84375 10.1875C3.40625 10.1562 2.1875 9.21875 1.78125 7.90625C2 7.9375 2.1875 7.96875 2.40625 7.96875C2.6875 7.96875 3 7.90625 3.25 7.84375C1.75 7.53125 0.625 6.21875 0.625 4.625V4.59375C1.0625 4.84375 1.59375 4.96875 2.125 5C1.21875 4.40625 0.65625 3.40625 0.65625 2.28125C0.65625 1.65625 0.8125 1.09375 1.09375 0.625C2.71875 2.59375 5.15625 3.90625 7.875 4.0625C7.8125 3.8125 7.78125 3.5625 7.78125 3.3125C7.78125 1.5 9.25 0.03125 11.0625 0.03125C12 0.03125 12.8438 0.40625 13.4688 1.0625C14.1875 0.90625 14.9062 0.625 15.5312 0.25C15.2812 1.03125 14.7812 1.65625 14.0938 2.0625C14.75 2 15.4062 1.8125 15.9688 1.5625C15.5312 2.21875 14.9688 2.78125 14.3438 3.25Z"/>
    </symbol>

    <symbol id="linkedin" width="14" height="15" viewBox="0 0 14 15">
        <path d="M3.125 14.5H0.21875V5.15625H3.125V14.5ZM1.65625 3.90625C0.75 3.90625 0 3.125 0 2.1875C0 1.28125 0.75 0.53125 1.65625 0.53125C2.59375 0.53125 3.34375 1.28125 3.34375 2.1875C3.34375 3.125 2.59375 3.90625 1.65625 3.90625ZM13.9688 14.5H11.0938V9.96875C11.0938 8.875 11.0625 7.5 9.5625 7.5C8.0625 7.5 7.84375 8.65625 7.84375 9.875V14.5H4.9375V5.15625H7.71875V6.4375H7.75C8.15625 5.71875 9.09375 4.9375 10.5 4.9375C13.4375 4.9375 14 6.875 14 9.375V14.5H13.9688Z"/>
    </symbol>

    <symbol id="cart" width="24" height="24" viewBox="0 0 24 24">
        <path d="M1 1.75H5L7.68 15.14C7.77144 15.6004 8.02191 16.014 8.38755 16.3083C8.75318 16.6026 9.2107 16.759 9.68 16.75H19.4C19.8693 16.759 20.3268 16.6026 20.6925 16.3083C21.0581 16.014 21.3086 15.6004 21.4 15.14L23 6.75H6M10 21.75C10 22.3023 9.55228 22.75 9 22.75C8.44772 22.75 8 22.3023 8 21.75C8 21.1977 8.44772 20.75 9 20.75C9.55228 20.75 10 21.1977 10 21.75ZM21 21.75C21 22.3023 20.5523 22.75 20 22.75C19.4477 22.75 19 22.3023 19 21.75C19 21.1977 19.4477 20.75 20 20.75C20.5523 20.75 21 21.1977 21 21.75Z" stroke-width="2" stroke-linecap="round" stroke-linejoin="round"/>
    </symbol>

    <symbol id="instagram" width="17" height="18" viewBox="0 0 17 18">
        <path d="M8.5 4.60742C6.125 4.60742 4.23242 6.53711 4.23242 8.875C4.23242 11.25 6.125 13.1426 8.5 13.1426C10.8379 13.1426 12.7676 11.25 12.7676 8.875C12.7676 6.53711 10.8379 4.60742 8.5 4.60742ZM8.5 11.6582C6.97852 11.6582 5.7168 10.4336 5.7168 8.875C5.7168 7.35352 6.94141 6.12891 8.5 6.12891C10.0215 6.12891 11.2461 7.35352 11.2461 8.875C11.2461 10.4336 10.0215 11.6582 8.5 11.6582ZM13.918 4.45898C13.918 3.90234 13.4727 3.45703 12.916 3.45703C12.3594 3.45703 11.9141 3.90234 11.9141 4.45898C11.9141 5.01562 12.3594 5.46094 12.916 5.46094C13.4727 5.46094 13.918 5.01562 13.918 4.45898ZM16.7383 5.46094C16.6641 4.125 16.3672 2.9375 15.4023 1.97266C14.4375 1.00781 13.25 0.710938 11.9141 0.636719C10.541 0.5625 6.42188 0.5625 5.04883 0.636719C3.71289 0.710938 2.5625 1.00781 1.56055 1.97266C0.595703 2.9375 0.298828 4.125 0.224609 5.46094C0.150391 6.83398 0.150391 10.9531 0.224609 12.3262C0.298828 13.6621 0.595703 14.8125 1.56055 15.8145C2.5625 16.7793 3.71289 17.0762 5.04883 17.1504C6.42188 17.2246 10.541 17.2246 11.9141 17.1504C13.25 17.0762 14.4375 16.7793 15.4023 15.8145C16.3672 14.8125 16.6641 13.6621 16.7383 12.3262C16.8125 10.9531 16.8125 6.83398 16.7383 5.46094ZM14.957 13.7734C14.6973 14.5156 14.1035 15.0723 13.3984 15.3691C12.2852 15.8145 9.6875 15.7031 8.5 15.7031C7.27539 15.7031 4.67773 15.8145 3.60156 15.3691C2.85938 15.0723 2.30273 14.5156 2.00586 13.7734C1.56055 12.6973 1.67188 10.0996 1.67188 8.875C1.67188 7.6875 1.56055 5.08984 2.00586 3.97656C2.30273 3.27148 2.85938 2.71484 3.60156 2.41797C4.67773 1.97266 7.27539 2.08398 8.5 2.08398C9.6875 2.08398 12.2852 1.97266 13.3984 2.41797C14.1035 2.67773 14.6602 3.27148 14.957 3.97656C15.4023 5.08984 15.291 7.6875 15.291 8.875C15.291 10.0996 15.4023 12.6973 14.957 13.7734Z"/>
    </symbol>
</svg>

