<svg width="471" height="217" fill="none" xmlns="http://www.w3.org/2000/svg"><path d="M10.16 155.139v-3.516c.097-.684.146-1.269.146-1.758.097-.586.244-.976.44-1.172l87.89-134.326c.586-.879 1.27-1.514 2.051-1.904a7.9 7.9 0 012.49-1.025 11.5 11.5 0 012.49-.293 20.548 20.548 0 012.197-.147c.782 0 1.807.049 3.076.147 1.368 0 2.637.146 3.809.439 1.27.195 2.344.537 3.223 1.025.976.489 1.465 1.221 1.465 2.198v114.55c0 1.856.097 2.93.292 3.223.293.293 1.124.44 2.491.44h24.463c1.074 0 2.099.097 3.076.292.976.196 1.465.977 1.465 2.344v21.68c0 2.344-.977 3.516-2.93 3.516h-26.66c-1.074 0-1.709.146-1.905.439-.195.195-.292 1.025-.292 2.49v47.608c0 .488-.196 1.269-.586 2.343-.293 1.075-1.416 1.612-3.37 1.612H89.407c-1.367 0-2.197-.44-2.49-1.319-.293-.879-.44-1.562-.44-2.05v-46.729c0-1.074-.048-1.904-.146-2.49 0-.586-.195-1.026-.586-1.318-.39-.293-.976-.44-1.758-.44-.78-.098-1.904-.146-3.369-.146H16.605c-1.856 0-3.418-.586-4.688-1.758-1.172-1.27-1.758-2.588-1.758-3.955zm27.685-23.877c0 .781.293 1.269.879 1.465.683.195 1.953.293 3.808.293h40.723c1.27 0 2.05-.293 2.344-.879.39-.586.683-1.27.879-2.051V71.35c0-1.368-.196-2.637-.586-3.809-.293-1.27-.977-1.904-2.051-1.904-.781 0-1.563.39-2.344 1.172l-1.904 1.904-40.137 60.058c-.195.196-.39.44-.586.733a7.195 7.195 0 01-.44.732 9.56 9.56 0 01-.585 1.026zm203.168 85.547c-11.133 0-20.948-2.491-29.444-7.471-8.496-5.078-15.625-12.109-21.386-21.094-5.664-9.082-9.961-19.922-12.891-32.519-2.93-12.598-4.395-26.465-4.395-41.602 0-8.008.635-16.113 1.905-24.316 1.367-8.301 3.32-16.26 5.859-23.877 2.539-7.715 5.713-14.893 9.522-21.534 3.906-6.738 8.349-12.548 13.33-17.431 5.078-4.98 10.742-8.887 16.992-11.719 6.25-2.93 13.086-4.394 20.508-4.394 7.422 0 14.209 1.416 20.361 4.248 6.25 2.832 11.816 6.738 16.699 11.718 4.883 4.98 9.131 10.84 12.744 17.579 3.711 6.64 6.739 13.818 9.082 21.533 2.442 7.617 4.248 15.576 5.42 23.877a159.687 159.687 0 011.905 24.463c0 15.136-1.368 29.003-4.102 41.601-2.734 12.598-6.885 23.438-12.451 32.52-5.469 8.984-12.354 15.966-20.654 20.947-8.204 4.98-17.871 7.471-29.004 7.471zM207.468 114.27c0 7.617.146 15.185.439 22.705.293 7.421.879 14.55 1.758 21.386.879 6.739 2.051 12.989 3.516 18.75 1.562 5.762 3.564 10.743 6.006 14.942 2.539 4.199 5.566 7.519 9.082 9.961 3.613 2.343 7.861 3.515 12.744 3.515s9.082-1.22 12.597-3.662c3.516-2.441 6.446-5.762 8.789-9.961 2.344-4.297 4.2-9.375 5.567-15.234 1.367-5.86 2.392-12.158 3.076-18.897.684-6.836 1.123-13.964 1.318-21.386.196-7.422.293-14.893.293-22.412 0-6.153-.195-12.696-.586-19.63a235.771 235.771 0 00-1.757-20.654c-.782-6.836-1.905-13.33-3.37-19.482-1.464-6.25-3.369-11.719-5.712-16.406-2.344-4.785-5.176-8.594-8.497-11.426-3.32-2.832-7.177-4.248-11.572-4.248-4.883 0-9.131 1.416-12.744 4.248-3.613 2.832-6.689 6.64-9.228 11.426-2.442 4.785-4.444 10.302-6.006 16.552-1.563 6.25-2.784 12.793-3.662 19.63a289.049 289.049 0 00-1.612 20.654 466.1 466.1 0 00-.439 19.629zm122.308 40.869v-3.516c.098-.684.147-1.269.147-1.758.098-.586.244-.976.439-1.172l87.891-134.326c.586-.879 1.269-1.514 2.051-1.904a7.9 7.9 0 012.49-1.025 11.5 11.5 0 012.49-.293 20.565 20.565 0 012.197-.147c.782 0 1.807.049 3.077.147 1.367 0 2.636.146 3.808.439 1.27.195 2.344.537 3.223 1.025.976.489 1.465 1.221 1.465 2.198v114.55c0 1.856.097 2.93.293 3.223.293.293 1.123.44 2.49.44H466.3c1.074 0 2.099.097 3.076.292.977.196 1.465.977 1.465 2.344v21.68c0 2.344-.977 3.516-2.93 3.516h-26.66c-1.074 0-1.709.146-1.904.439-.196.195-.293 1.025-.293 2.49v47.608c0 .488-.196 1.269-.586 2.343-.293 1.075-1.416 1.612-3.369 1.612h-26.075c-1.367 0-2.197-.44-2.49-1.319-.293-.879-.439-1.562-.439-2.05v-46.729c0-1.074-.049-1.904-.147-2.49 0-.586-.195-1.026-.586-1.318-.39-.293-.976-.44-1.758-.44-.781-.098-1.904-.146-3.369-.146h-64.013c-1.856 0-3.418-.586-4.688-1.758-1.172-1.27-1.758-2.588-1.758-3.955zm27.686-23.877c0 .781.293 1.269.879 1.465.683.195 1.953.293 3.808.293h40.723c1.27 0 2.051-.293 2.344-.879.39-.586.683-1.27.879-2.051V71.35c0-1.368-.196-2.637-.586-3.809-.293-1.27-.977-1.904-2.051-1.904-.781 0-1.562.39-2.344 1.172l-1.904 1.904-40.137 60.058c-.195.196-.39.44-.586.733a7.125 7.125 0 01-.439.732 9.556 9.556 0 01-.586 1.026z" fill="#FFCA42"/><path d="M.16 145.139v-3.516c.097-.684.146-1.269.146-1.758.097-.586.244-.976.44-1.172L88.635 4.367c.586-.879 1.27-1.513 2.05-1.904a7.905 7.905 0 012.49-1.026 11.498 11.498 0 012.491-.292 20.538 20.538 0 012.197-.147c.781 0 1.807.049 3.076.147 1.368 0 2.637.146 3.809.439 1.27.195 2.344.537 3.223 1.025.976.489 1.465 1.221 1.465 2.198v114.55c0 1.856.097 2.93.292 3.223.293.293 1.124.44 2.491.44h24.463c1.074 0 2.099.097 3.076.292.976.196 1.465.977 1.465 2.344v21.68c0 2.344-.977 3.516-2.93 3.516h-26.66c-1.074 0-1.709.146-1.905.439-.195.195-.292 1.025-.292 2.49v47.608c0 .488-.196 1.269-.586 2.343-.293 1.075-1.416 1.612-3.37 1.612H79.407c-1.367 0-2.197-.44-2.49-1.319-.293-.879-.44-1.562-.44-2.05v-46.729c0-1.074-.048-1.904-.146-2.49 0-.586-.195-1.026-.586-1.318-.39-.293-.976-.44-1.758-.44-.78-.098-1.904-.146-3.369-.146H6.604c-1.855 0-3.417-.586-4.687-1.758-1.172-1.27-1.758-2.588-1.758-3.955zm27.685-23.877c0 .781.293 1.269.879 1.465.683.195 1.953.293 3.808.293h40.723c1.27 0 2.05-.293 2.344-.879.39-.586.683-1.27.879-2.051V61.35c0-1.368-.196-2.637-.586-3.809-.293-1.27-.977-1.904-2.051-1.904-.781 0-1.563.39-2.344 1.172l-1.904 1.904-40.137 60.058c-.195.196-.39.44-.586.733a7.195 7.195 0 01-.44.732 9.56 9.56 0 01-.585 1.026zm203.168 85.547c-11.133 0-20.948-2.491-29.444-7.471-8.496-5.078-15.625-12.109-21.386-21.094-5.664-9.082-9.961-19.922-12.891-32.519-2.93-12.598-4.395-26.465-4.395-41.602 0-8.008.635-16.113 1.905-24.316 1.367-8.301 3.32-16.26 5.859-23.877 2.539-7.715 5.713-14.893 9.522-21.533 3.906-6.739 8.349-12.55 13.33-17.432 5.078-4.98 10.742-8.887 16.992-11.719 6.25-2.93 13.086-4.394 20.508-4.394 7.422 0 14.209 1.416 20.361 4.248 6.25 2.832 11.816 6.738 16.699 11.718 4.883 4.98 9.131 10.84 12.744 17.579 3.711 6.64 6.739 13.818 9.082 21.533 2.442 7.617 4.248 15.576 5.42 23.877a159.688 159.688 0 011.905 24.463c0 15.136-1.368 29.003-4.102 41.601-2.734 12.598-6.885 23.438-12.451 32.52-5.469 8.984-12.354 15.966-20.654 20.947-8.204 4.98-17.871 7.471-29.004 7.471zM197.468 104.27c0 7.617.146 15.185.439 22.705.293 7.421.879 14.55 1.758 21.386.879 6.739 2.051 12.989 3.516 18.75 1.562 5.762 3.564 10.743 6.006 14.942 2.539 4.199 5.566 7.519 9.082 9.961 3.613 2.343 7.861 3.515 12.744 3.515s9.082-1.22 12.597-3.662c3.516-2.441 6.446-5.762 8.789-9.961 2.344-4.297 4.2-9.375 5.567-15.234 1.367-5.86 2.392-12.158 3.076-18.897.684-6.836 1.123-13.964 1.318-21.386.196-7.422.293-14.893.293-22.412 0-6.153-.195-12.696-.586-19.63a235.771 235.771 0 00-1.757-20.654c-.782-6.836-1.905-13.33-3.37-19.482-1.464-6.25-3.369-11.719-5.712-16.406-2.344-4.785-5.176-8.594-8.497-11.426-3.32-2.832-7.177-4.248-11.572-4.248-4.883 0-9.131 1.416-12.744 4.248-3.613 2.832-6.689 6.64-9.228 11.426-2.442 4.785-4.444 10.302-6.006 16.552-1.563 6.25-2.784 12.793-3.662 19.63a289.049 289.049 0 00-1.612 20.654 466.115 466.115 0 00-.439 19.629zm122.308 40.869v-3.516c.098-.684.147-1.269.147-1.758.098-.586.244-.976.439-1.172L408.253 4.367c.586-.879 1.269-1.513 2.051-1.904a7.9 7.9 0 012.49-1.026 11.5 11.5 0 012.49-.292 20.55 20.55 0 012.197-.147c.782 0 1.807.049 3.077.147 1.367 0 2.636.146 3.808.439 1.27.195 2.344.537 3.223 1.025.976.489 1.465 1.221 1.465 2.198v114.55c0 1.856.097 2.93.293 3.223.293.293 1.123.44 2.49.44H456.3c1.074 0 2.099.097 3.076.292.977.196 1.465.977 1.465 2.344v21.68c0 2.344-.977 3.516-2.93 3.516h-26.66c-1.074 0-1.709.146-1.904.439-.196.195-.293 1.025-.293 2.49v47.608c0 .488-.196 1.269-.586 2.343-.293 1.075-1.416 1.612-3.369 1.612h-26.075c-1.367 0-2.197-.44-2.49-1.319-.293-.879-.439-1.562-.439-2.05v-46.729c0-1.074-.049-1.904-.147-2.49 0-.586-.195-1.026-.586-1.318-.39-.293-.976-.44-1.758-.44-.781-.098-1.904-.146-3.369-.146h-64.013c-1.856 0-3.418-.586-4.688-1.758-1.172-1.27-1.758-2.588-1.758-3.955zm27.686-23.877c0 .781.293 1.269.879 1.465.683.195 1.953.293 3.808.293h40.723c1.27 0 2.051-.293 2.344-.879.39-.586.683-1.27.879-2.051V61.35c0-1.368-.196-2.637-.586-3.809-.293-1.27-.977-1.904-2.051-1.904-.781 0-1.562.39-2.344 1.172l-1.904 1.904-40.137 60.058c-.195.196-.39.44-.586.733a7.125 7.125 0 01-.439.732 9.556 9.556 0 01-.586 1.026z" fill="#1B3764"/></svg>