<svg width="100" height="100" fill="none" xmlns="http://www.w3.org/2000/svg"><path d="M49.887 99.77C22.379 99.77 0 77.391 0 49.887 0 22.379 22.379 0 49.887 0 77.391 0 99.77 22.379 99.77 49.887c0 27.504-22.379 49.883-49.883 49.883zm0-97.744c-26.39 0-47.861 21.471-47.861 47.861 0 26.39 21.471 47.861 47.861 47.861 26.39 0 47.861-21.47 47.861-47.861-.004-26.39-21.47-47.861-47.861-47.861z" fill="#1B3764"/><path d="M10.227 49.227c0 .162.28.243.843.243a.822.822 0 00.308-.045 1.48 1.48 0 01.648-.125c.256 0 .385.065.385.198 0 .053-.02.13-.065.227a.779.779 0 01-.097.183c-.02.02-.101.052-.239.089-.138.036-.227.06-.271.065-.04.004-.07.008-.081.008-.013.004-.029.004-.05.008-.02.004-.06.008-.125.02s-.113.012-.142 0c-.818.405-1.381.847-1.69 1.33-.137.218-.206.404-.206.558 0 .243.17.369.51.369.264 0 .604-.105 1.01-.312.409-.207.77-.462 1.086-.758.316-.295.474-.55.474-.77 0-.069.052-.105.154-.105.239 0 .36.142.36.426 0 .133-.056.291-.174.478-.117.186-.28.372-.486.559-.207.19-.438.364-.693.53a3.914 3.914 0 01-.851.402c-.312.105-.575.158-.79.158a1.85 1.85 0 01-.523-.061 1.328 1.328 0 01-.373-.182c-.25-.175-.38-.442-.38-.799 0-.194.052-.389.158-.587a2.09 2.09 0 01.409-.543c.308-.308.64-.563.997-.766-.51-.117-.766-.38-.766-.786 0-.462.352-.883 1.061-1.264.393-.21.823-.36 1.28-.454.22-.044.402-.069.548-.069.296 0 .523.025.672.069a.558.558 0 01.223.186c.057.081.085.15.085.207a.65.65 0 01-.02.158.218.218 0 01-.073.11.587.587 0 01-.166.085l-.11.036a1.34 1.34 0 01-.498.122c-.247 0-.38-.033-.405-.098a.538.538 0 01.081-.222 2.603 2.603 0 00-.733.141c-.252.085-.47.187-.657.3a2.269 2.269 0 00-.454.357c-.113.133-.174.239-.174.324zm3.076 2.889l-.004.061c0 .061.024.114.069.158.048.045.089.07.13.07.295 0 .559-.046.79-.135.23-.089.344-.178.344-.267 0-.04-.04-.077-.126-.11a3.447 3.447 0 00-.421-.113 5.606 5.606 0 01-.43-.11 1.376 1.376 0 01-.21-.072.649.649 0 01-.158-.093c-.118-.082-.175-.203-.175-.365 0-.162.061-.324.179-.482.121-.158.271-.296.45-.41a3.85 3.85 0 01.583-.3c.41-.17.758-.255 1.037-.255.276 0 .446.061.51.179.021.04.03.089.03.142v.024c0 .13-.03.235-.086.308a.75.75 0 01-.263.202.683.683 0 01-.288.09.32.32 0 01-.134-.017c-.02-.012-.032-.024-.048-.04a.126.126 0 00-.045-.037c-.02-.008-.028-.024-.028-.056 0-.029.012-.061.036-.09a.377.377 0 00.053-.097 1.664 1.664 0 00-.515.114 2.538 2.538 0 00-.457.227 2.549 2.549 0 00-.317.243c-.085.077-.125.133-.125.17 0 .036.057.065.17.089.515.101.85.19 1.009.263a.819.819 0 01.336.252.48.48 0 01.093.255.673.673 0 01-.19.45 1.46 1.46 0 01-.47.344c-.397.195-.746.292-1.041.292-.296 0-.499-.045-.612-.134a.4.4 0 01-.17-.32c0-.122.032-.24.093-.344.065-.106.146-.158.243-.158.105-.005.158.02.158.072zm4.943-4.044l.154.037c.02 0 .04.012.06.032a.09.09 0 01.025.065c0 .02-.024.073-.077.158l-.182.296-.114.178a5.07 5.07 0 01.41-.02c.08 0 .133.004.166.016.032.012.064.04.1.093.037.053.074.09.106.114.033.024.049.065.049.117 0 .053-.033.097-.093.134a.516.516 0 01-.203.065c-.575.056-.891.085-.952.089-.203.308-.482.786-.843 1.434-.36.648-.551 1.058-.575 1.22-.009.073-.017.134-.017.182 0 .097.053.146.154.146.102 0 .215-.04.337-.117.121-.077.239-.163.34-.256.276-.247.425-.373.446-.373.065 0 .097.11.097.337 0 .121-.057.23-.166.328a6.125 6.125 0 01-.632.486.935.935 0 01-.51.162.442.442 0 01-.106-.012c-.199-.036-.344-.11-.438-.219-.093-.109-.137-.255-.137-.437 0-.183.056-.405.162-.669.109-.26.243-.539.405-.834.267-.483.535-.932.802-1.354l-.142.02a8.066 8.066 0 01-.502.05h-.033a.512.512 0 01-.206-.045c-.065-.029-.102-.065-.102-.106a.18.18 0 01.053-.121.297.297 0 00.065-.094c.016-.052.081-.113.195-.182a.644.644 0 01.255-.105c.056-.004.113-.008.166-.008.052-.005.113-.005.178-.008.065-.005.118-.005.15-.009l.336-.016c.207-.312.353-.514.43-.604.077-.089.121-.137.134-.145.012-.008.036-.013.073-.013l.182-.012zm-.417 4.348c.117-.118.235-.179.348-.179.207 0 .308.085.308.251a.593.593 0 01-.174.402.52.52 0 01-.393.194c-.178 0-.268-.09-.268-.271 0-.146.061-.28.179-.398zm62.411-.171c.64-.126 1.081-.19 1.329-.19.093 0 .141.028.157.085.005.024.017.04.037.048.02.012.04.061.06.146.021.085.033.158.037.21v.033c0 .085-.032.138-.097.15-.24.049-.624.093-1.163.134-.535.04-.855.069-.956.08a.648.648 0 01-.247-.084.366.366 0 01-.073-.118.398.398 0 01-.04-.15c0-.04.023-.11.068-.202.008-.017.162-.19.466-.523.073-.081.267-.255.58-.535.312-.28.53-.482.652-.62.121-.138.336-.364.644-.684.308-.32.535-.568.685-.746.15-.178.223-.304.223-.377 0-.048-.037-.069-.11-.069a.688.688 0 00-.263.065c-.101.045-.223.11-.357.195-.32.206-.628.514-.92.927-.016.013-.02.037-.02.077a.245.245 0 01-.125.122.379.379 0 01-.158.049.361.361 0 01-.15-.04.4.4 0 01-.134-.082c-.028-.028-.044-.081-.044-.158s.044-.186.13-.328c.084-.142.206-.292.364-.454.158-.158.328-.312.523-.454.19-.142.405-.26.644-.356.239-.094.437-.142.603-.142.167 0 .288.036.37.11.145.133.218.283.218.445 0 .162-.077.365-.23.604a5.828 5.828 0 01-.629.782 29.55 29.55 0 01-.75.778c-.235.23-.498.482-.786.753-.287.276-.47.446-.538.519zm6.012-3.379a1.81 1.81 0 01-.04.312c-.029.162-.126.368-.288.616.004.008.004.032.008.069a.643.643 0 01-.016.158 1.885 1.885 0 01-.162.389c-.097.19-.215.397-.36.62a6.783 6.783 0 01-1.122 1.297c-.208.185-.43.335-.666.453-.235.117-.45.178-.64.178a.608.608 0 01-.458-.174.698.698 0 01-.182-.49c-.008-.211.045-.466.158-.762a5.04 5.04 0 01.45-.887c.186-.296.405-.588.656-.876.247-.287.503-.543.758-.761a4.38 4.38 0 01.766-.535c.255-.138.462-.203.624-.203.162 0 .287.057.377.17.085.11.133.252.137.426zm-3.245 3.144c.004.199.077.296.223.296.145 0 .32-.081.53-.247.361-.276.782-.738 1.265-1.382-.134.077-.24.114-.32.114-.082 0-.142-.029-.183-.09a.459.459 0 01-.069-.247c-.004-.105.033-.174.11-.202a1.76 1.76 0 00.761-.564c.199-.255.292-.498.288-.725-.004-.081-.06-.117-.166-.117-.105 0-.288.109-.539.328a6.785 6.785 0 00-.758.79 9.28 9.28 0 00-.705.997c-.219.356-.356.66-.421.911a.266.266 0 00-.016.138zm3.343.235c.64-.126 1.082-.19 1.329-.19.093 0 .142.028.158.085.004.024.016.04.036.048.02.012.04.061.061.146.02.085.032.158.037.21v.033c0 .085-.033.138-.098.15-.239.049-.624.093-1.163.134-.534.04-.854.069-.956.08a.649.649 0 01-.247-.084.368.368 0 01-.073-.118.398.398 0 01-.04-.15c0-.04.024-.11.068-.202.008-.017.162-.19.466-.523.073-.081.268-.255.58-.535.312-.28.53-.482.652-.62s.337-.364.644-.684c.308-.32.535-.568.685-.746.15-.178.223-.304.223-.377 0-.048-.036-.069-.11-.069a.687.687 0 00-.263.065 2.77 2.77 0 00-.356.195c-.32.206-.628.514-.92.927-.016.013-.02.037-.02.077a.245.245 0 01-.126.122.379.379 0 01-.158.049.361.361 0 01-.15-.04.4.4 0 01-.134-.082c-.028-.028-.044-.081-.044-.158s.044-.186.13-.328a2.55 2.55 0 01.364-.454c.158-.158.328-.312.523-.454.19-.142.405-.26.644-.356.24-.094.438-.142.604-.142.166 0 .288.036.369.11.145.133.218.283.218.445 0 .162-.077.365-.23.604a5.819 5.819 0 01-.629.782 29.27 29.27 0 01-.75.778c-.234.23-.498.482-.785.753-.288.276-.466.446-.54.519zm6.013-3.379c.004.044-.013.15-.04.312-.03.162-.126.368-.289.616.004.008.004.032.009.069a.644.644 0 01-.017.158 1.876 1.876 0 01-.162.389c-.097.19-.215.397-.36.62a6.796 6.796 0 01-1.122 1.297c-.207.185-.43.335-.665.453-.235.117-.45.178-.64.178a.608.608 0 01-.458-.174.697.697 0 01-.183-.49c-.008-.211.045-.466.158-.762.114-.296.264-.592.45-.887.187-.296.405-.588.657-.876.247-.287.502-.543.757-.761.255-.22.51-.398.766-.535.255-.138.462-.203.624-.203.162 0 .288.057.377.17.089.11.134.252.138.426zm-3.246 3.144c.004.199.077.296.223.296.146 0 .32-.081.53-.247.361-.276.783-.738 1.265-1.382-.134.077-.24.114-.32.114-.081 0-.142-.029-.183-.09a.46.46 0 01-.068-.247c-.004-.105.032-.174.109-.202.308-.122.563-.308.762-.564.198-.255.291-.498.287-.725-.004-.081-.06-.117-.166-.117-.105 0-.287.109-.539.328a6.794 6.794 0 00-.757.79c-.252.308-.487.64-.705.997-.22.356-.357.66-.422.911-.016.045-.02.09-.016.138zM20.268 76.573a2.839 2.839 0 00-.19-.701 1.19 1.19 0 00-.183-.312.497.497 0 00-.174-.146.152.152 0 00-.166.028.159.159 0 00-.065.118.431.431 0 00.02.166c.016.065.045.138.081.223.037.085.077.182.118.292.069.17.125.332.166.482.04.15.057.296.052.43a.921.921 0 01-.1.384 1.2 1.2 0 01-.305.353 1.196 1.196 0 01-.53.267 1.102 1.102 0 01-.503-.02 1.388 1.388 0 01-.454-.235 2.19 2.19 0 01-.38-.369c-.09-.11-.17-.227-.248-.356a3.978 3.978 0 01-.365-.819 2.713 2.713 0 01-.097-.41l1.005-.23a3.14 3.14 0 00.219.835c.057.141.134.271.23.385a.494.494 0 00.187.157.14.14 0 00.138-.024.173.173 0 00.065-.138.616.616 0 00-.04-.206 5.16 5.16 0 00-.106-.268c-.04-.097-.085-.202-.126-.32a3.273 3.273 0 01-.133-.458 1.207 1.207 0 01-.017-.376.819.819 0 01.114-.32c.06-.098.146-.191.255-.28a1.35 1.35 0 01.51-.267c.175-.045.345-.045.515-.013.17.037.329.102.479.199.15.097.287.219.409.369.089.109.166.222.227.344a3.623 3.623 0 01.283.721c.033.114.057.219.077.312l-.968.203zm.437 4.299l3.643-1.88.632.575-1.524 3.805-.826-.75.332-.713-.758-.688-.672.405-.827-.754zm3.217-.782l-1.13.713.518.47.612-1.183zm4.105 4.303l-1.03 1.584-.883-.575 2.091-3.221.689.45.23 2.475 1.062-1.637.884.576-2.091 3.22-.701-.457-.251-2.415zm8.059 6.227l1.22-3.642 2.495.838-.291.871-1.5-.502-.202.604 1.22.409-.272.81-1.22-.409-.453 1.353-.997-.332zm5.827 1.686l.66-3.784 1.739.303c.186.033.348.102.49.203.142.105.26.227.353.369.089.141.154.295.19.466a1.355 1.355 0 01-.239 1.086c-.13.174-.288.303-.482.397l.612 1.54-1.171-.203-.519-1.289-.389-.069-.203 1.163-1.04-.182zm1.398-1.888l.656.113c.065.012.13-.012.199-.077a.456.456 0 00.134-.283c.024-.134.008-.24-.045-.32-.053-.082-.11-.126-.174-.138l-.628-.11-.142.815zm4.931 2.752l1.5-3.817.854.016 1.362 3.865-1.114-.02-.22-.758-1.02-.016-.24.75-1.122-.02zm1.905-2.711l-.381 1.28.697.012-.316-1.292zm5.927.527l.272 1.868-1.046.154-.555-3.8.815-.118 1.807 1.71-.284-1.933 1.046-.154.555 3.8-.831.122-1.779-1.649zm5.454-1.131a2.013 2.013 0 01-.089-.697c.012-.24.065-.474.162-.693.097-.219.24-.418.426-.596.186-.174.417-.308.692-.397.329-.105.637-.121.924-.052.292.068.531.206.726.409l-.596.79a.668.668 0 00-.397-.272.61.61 0 00-.21-.012.981.981 0 00-.187.037.619.619 0 00-.3.19.773.773 0 00-.158.296c-.032.11-.04.227-.032.352a1.462 1.462 0 00.235.706c.068.105.15.194.243.263s.19.117.3.142a.647.647 0 00.336-.02.689.689 0 00.328-.215.667.667 0 00.154-.43l.976.231a1.04 1.04 0 01-.121.434 1.588 1.588 0 01-.272.38 1.817 1.817 0 01-.376.3c-.138.085-.28.154-.426.199a1.604 1.604 0 01-.754.06 1.866 1.866 0 01-.684-.255 2.13 2.13 0 01-.9-1.15zm6.933-.47l-1.633-3.476.956-.45 1.633 3.477-.956.45zm4.745-5.595a3.925 3.925 0 00-.377.032c-.105.016-.219.04-.34.073a1.2 1.2 0 00-.328.142.483.483 0 00-.166.158c-.033.052-.029.109.008.17a.16.16 0 00.109.077.566.566 0 00.166 0 2.94 2.94 0 00.231-.053c.09-.024.19-.053.304-.085.178-.049.344-.085.498-.105.154-.02.3-.025.434-.004.134.02.255.069.369.146.113.076.218.19.316.344.125.194.194.38.206.559a1.03 1.03 0 01-.08.498 1.463 1.463 0 01-.288.426c-.126.13-.264.239-.414.336a2.852 2.852 0 01-.38.207 4.22 4.22 0 01-.855.267 2.54 2.54 0 01-.418.049l-.113-1.025a3.162 3.162 0 00.855-.122c.145-.04.283-.105.409-.186.097-.061.158-.118.178-.17.02-.049.02-.098-.008-.138a.178.178 0 00-.13-.081.664.664 0 00-.21.016c-.081.02-.175.045-.276.073-.101.028-.21.06-.332.09a2.504 2.504 0 01-.47.076 1.24 1.24 0 01-.377-.028.763.763 0 01-.304-.15 1.163 1.163 0 01-.251-.284 1.26 1.26 0 01-.203-.539 1.19 1.19 0 01.049-.51 1.41 1.41 0 01.251-.454c.114-.138.251-.26.413-.365a1.98 1.98 0 01.37-.186 3.462 3.462 0 01.749-.195c.117-.016.223-.032.32-.04l.085.98zm3.217-1.56a1.975 1.975 0 01-.36-.605 1.847 1.847 0 01.02-1.414c.097-.235.259-.45.478-.64.259-.227.534-.364.826-.417a1.42 1.42 0 01.827.085l-.231.964a.682.682 0 00-.474-.093.83.83 0 00-.357.182.639.639 0 00-.198.292.763.763 0 00-.025.332c.017.114.053.227.11.337a1.432 1.432 0 00.494.555c.105.069.215.117.328.146a.767.767 0 00.333.008.614.614 0 00.3-.154.761.761 0 00.215-.324.665.665 0 00-.032-.458l.983-.178c.053.141.073.291.065.445-.008.154-.04.308-.097.458a1.942 1.942 0 01-.535.778 1.614 1.614 0 01-.664.357 1.93 1.93 0 01-.73.04 2.162 2.162 0 01-.705-.235 2.255 2.255 0 01-.571-.462zm7.262-4.409a1.634 1.634 0 01-.608.466 1.888 1.888 0 01-.71.162 2.019 2.019 0 01-.72-.113 1.974 1.974 0 01-.64-.365 1.971 1.971 0 01-.475-.575 1.919 1.919 0 01-.178-1.418 1.783 1.783 0 01.96-1.139 1.905 1.905 0 011.435-.044c.235.085.445.202.636.36.194.162.352.353.47.572a1.914 1.914 0 01.182 1.414c-.06.247-.178.47-.352.68zm-1.982-.664c.102.085.207.154.32.207.114.052.227.085.34.097a.774.774 0 00.333-.04.627.627 0 00.284-.208.648.648 0 00.154-.324.765.765 0 00-.025-.332 1.065 1.065 0 00-.162-.316 1.649 1.649 0 00-.255-.275 1.416 1.416 0 00-.32-.203.976.976 0 00-.336-.093.686.686 0 00-.608.251.652.652 0 00-.154.32.754.754 0 00.024.328c.033.11.085.215.158.316.073.102.15.19.247.272zM14.858 34.069a.562.562 0 00.053-.329.68.68 0 00-.113-.287 1.113 1.113 0 00-.24-.24 1.695 1.695 0 00-.323-.186l-1.856-.818.437-.993 1.856.818c.251.11.47.248.66.41.191.162.337.344.434.55.101.207.15.434.15.677 0 .248-.06.507-.182.787a1.876 1.876 0 01-.47.676 1.565 1.565 0 01-.612.332 1.708 1.708 0 01-.693.04 2.725 2.725 0 01-.725-.21l-1.856-.818.438-.993 1.855.819c.118.052.24.093.36.117.122.024.236.028.341.016a.595.595 0 00.486-.368zm3.153-4.085l-3.27-2.204 1.013-1.504a1.283 1.283 0 01.892-.551c.17-.024.344-.02.518.016.174.037.332.102.47.195.19.13.34.288.45.482.11.195.166.401.17.616l1.698.073-.685 1.013-1.422-.057-.227.337 1.005.676-.612.908zm-1.179-2.107l.38-.567c.037-.057.041-.126.013-.215a.513.513 0 00-.21-.247c-.114-.077-.22-.11-.317-.093-.097.016-.166.048-.202.105l-.365.543.701.474zm6.596-6.171c.13.122.21.256.255.398.04.141.045.287.017.437-.033.15-.094.3-.183.45-.089.15-.202.296-.336.433l-1.345 1.398-2.845-2.735 1.589-1.649a.792.792 0 01.324-.206.912.912 0 01.36-.045c.122.008.24.04.357.093a1.073 1.073 0 01.596.68.893.893 0 01-.02.572 1.03 1.03 0 01.62-.146c.206.02.408.13.611.32zm-3.027.244l.438.42.51-.53a.345.345 0 00.098-.19c.012-.073-.025-.15-.114-.235-.077-.073-.15-.11-.219-.106a.257.257 0 00-.178.085l-.535.556zm2.103.397a.37.37 0 00-.227-.114.243.243 0 00-.21.077l-.62.644.478.458.591-.616a.338.338 0 00.098-.218c.004-.081-.033-.159-.11-.231zm3.623-1.687l-1.167-4.047.705-.523 3.53 2.294-.92.68-.653-.478-.843.624.272.758-.924.693zm-.142-3.403l.494 1.28.576-.425-1.07-.855zm5.807-2.601l.863 1.738-.973.483-1.758-3.534.758-.377 2.313 1.09-.895-1.794.968-.483 1.759 3.534-.77.384-2.265-1.04zm13.006-3.181a.903.903 0 01-.029.47.912.912 0 01-.247.365c-.113.101-.251.19-.413.259a2.37 2.37 0 01-.527.154l-1.908.344-.701-3.881 2.252-.405a.799.799 0 01.381.02.858.858 0 01.32.178 1.087 1.087 0 01.365.636 1.1 1.1 0 01-.044.547.887.887 0 01-.353.45c.235.024.43.11.592.247.158.138.263.345.312.616zm-2.594-1.576l.11.596.725-.13a.345.345 0 00.19-.098c.053-.052.07-.137.05-.255-.021-.105-.058-.178-.118-.214a.274.274 0 00-.195-.037l-.762.138zm1.471 1.552a.374.374 0 00-.117-.223.248.248 0 00-.215-.06l-.88.157.118.652.843-.15a.318.318 0 00.207-.121c.044-.069.06-.15.044-.255zm6.05.778a1.73 1.73 0 01-.77-.17 1.926 1.926 0 01-.595-.45 2.015 2.015 0 01-.385-.64 2.044 2.044 0 01-.138-.746c0-.26.044-.51.138-.75a1.983 1.983 0 01.996-1.077c.231-.11.487-.167.762-.167.284 0 .54.057.77.17.231.114.43.268.596.454.166.187.291.402.385.645a2.2 2.2 0 01.137.737 2.05 2.05 0 01-.526 1.386 1.946 1.946 0 01-.6.446c-.235.105-.49.162-.77.162zm-.79-1.998c0 .134.016.264.049.385a.973.973 0 00.15.328.76.76 0 00.25.231c.102.061.22.09.35.09a.677.677 0 00.356-.094.722.722 0 00.243-.239 1.2 1.2 0 00.142-.336 1.54 1.54 0 00-.008-.77 1.018 1.018 0 00-.15-.328.779.779 0 00-.248-.227.71.71 0 00-.352-.085.689.689 0 00-.352.089.76.76 0 00-.244.239.997.997 0 00-.141.332c-.033.13-.045.255-.045.385zm7.407 2.557a1.725 1.725 0 01-.73-.304 1.966 1.966 0 01-.773-1.244 2.07 2.07 0 01-.004-.758 2.027 2.027 0 01.77-1.272c.198-.154.421-.26.668-.328.247-.07.507-.077.782-.029.276.049.519.15.73.304.206.154.376.336.506.551a2.117 2.117 0 01.267 1.45 2.036 2.036 0 01-.762 1.268c-.194.15-.417.264-.668.333a1.767 1.767 0 01-.786.029zm-.425-2.103c-.025.13-.029.259-.02.389.007.125.04.243.088.352a.758.758 0 00.207.272c.09.077.199.125.328.15a.682.682 0 00.649-.223c.08-.085.146-.187.198-.308a1.66 1.66 0 00.114-.369c.024-.13.028-.26.016-.389a1.05 1.05 0 00-.09-.348.782.782 0 00-.202-.268.717.717 0 00-.328-.146.644.644 0 00-.365.029.778.778 0 00-.283.19 1.066 1.066 0 00-.199.304 1.233 1.233 0 00-.113.365zm5.267 3.217l1.345-3.708 1.017.37-.551 1.514 1.783-1.07 1.045.382-1.949 1.17.697 2.574-1.066-.385-.441-1.832-.466.255-.401 1.103-1.013-.373zm9.286 1.308a3.19 3.19 0 00-.442-.6 1.385 1.385 0 00-.287-.23.461.461 0 00-.223-.073c-.064 0-.113.028-.15.089a.176.176 0 00-.02.134c.012.044.04.097.081.15.04.056.093.117.162.182.065.069.142.146.223.235.13.138.243.271.337.401.093.13.166.26.21.39a.9.9 0 01.045.404 1.244 1.244 0 01-.158.454 1.266 1.266 0 01-.41.458c-.153.097-.32.154-.49.166a1.459 1.459 0 01-.522-.057 2.396 2.396 0 01-.503-.21 2.973 2.973 0 01-.373-.248 4.068 4.068 0 01-.656-.644 3.057 3.057 0 01-.243-.352l.875-.6a3.3 3.3 0 00.523.717c.11.114.23.207.364.284.102.057.183.085.24.08.056-.003.097-.027.121-.072a.167.167 0 00.008-.158.598.598 0 00-.117-.182 3.089 3.089 0 00-.203-.215 3.88 3.88 0 01-.24-.26 2.758 2.758 0 01-.295-.388 1.082 1.082 0 01-.154-.357.841.841 0 01-.012-.348c.02-.118.069-.235.138-.361a1.32 1.32 0 01.389-.446 1.18 1.18 0 01.49-.202c.174-.029.353-.025.535.012.182.036.357.101.527.198.125.073.243.154.348.244.105.093.203.186.296.287a5.033 5.033 0 01.434.567l-.847.551zm6.022 3.94l-.883-.714-1.884 2.338-.843-.68 1.884-2.339-.887-.713.591-.737 2.614 2.107-.592.737zm1.317 5.631a1.719 1.719 0 01-.385-.689 1.947 1.947 0 01.162-1.458 2.01 2.01 0 01.466-.6 2.035 2.035 0 011.39-.527c.25.004.494.057.729.154.235.101.446.255.632.458.186.21.316.438.385.689.069.247.09.498.057.745a2.137 2.137 0 01-.689 1.305 1.99 1.99 0 01-.653.393c-.243.09-.486.134-.733.13-.247 0-.49-.053-.73-.154a1.588 1.588 0 01-.631-.446zm.968-1.916a1.448 1.448 0 00-.255.291.981.981 0 00-.15.332.806.806 0 00-.008.34.678.678 0 00.166.32.66.66 0 00.304.204c.11.032.227.04.34.024.114-.016.231-.057.345-.118.113-.06.218-.133.316-.218a1.67 1.67 0 00.255-.296c.069-.11.117-.22.146-.328a.707.707 0 00-.166-.656.66.66 0 00-.304-.204.8.8 0 00-.34-.024 1.102 1.102 0 00-.345.114c-.101.06-.207.13-.304.218zm2.14 5.815l3.363-2.067.948 1.544c.102.162.162.336.178.519a1.38 1.38 0 01-.044.518c-.049.166-.126.32-.231.466-.105.142-.231.26-.373.345a1.357 1.357 0 01-1.256.105l-.77 1.52-.64-1.042.64-1.272-.21-.345-1.034.637-.571-.928zm2.403-.207l.356.584c.037.056.102.089.195.1a.529.529 0 00.312-.088c.117-.073.186-.154.215-.252.028-.093.024-.17-.013-.226l-.344-.56-.721.442zm2.637 8.071l-.875.357-1.058-2.606 3.66-1.483 1.037 2.561-.876.357-.632-1.556-.514.21.539 1.33-.815.328-.539-1.33-.575.236.648 1.596zM65.803 50.235c-.032-.117-.17-.25-.32-.198-1.447.474-2.901.28-4.32.085a44.541 44.541 0 00-1.053-.134c-.758-.08-1.758-.146-2.76.057-1.032.21-2.078.717-3.294 1.596-.28.203-.563.418-.846.64.405-1.77.806-3.54 1.276-5.3l.069-.1c.786-.406 1.605-.564 2.516-.718.936-.154 1.856-.328 2.78-.73 1.584-.688 3.172-1.895 5.008-3.808a61.981 61.981 0 002.504-2.816c.085-.101.101-.24.04-.336a.27.27 0 00-.384-.061c-1.41 1.086-3.007 1.52-4.555 1.945-.377.105-.77.21-1.15.324-.823.247-1.897.612-2.906 1.24-1.033.648-2.01 1.588-3.067 2.958-.142.182-.284.373-.425.563.66-2.217 1.479-4.4 2.589-6.426.048-.09.097-.175.146-.26a.57.57 0 01.15-.162l.003-.012c.693-.64 1.508-1.062 2.424-1.507.94-.458 1.855-.924 2.694-1.609 1.443-1.17 2.715-2.832 4.007-5.227.629-1.163 1.18-2.35 1.694-3.464.057-.126.028-.26-.069-.328a.324.324 0 00-.417.073c-1.123 1.483-2.662 2.422-4.166 3.334a89.91 89.91 0 00-1.106.685c-.786.506-1.803 1.203-2.654 2.127-.875.952-1.588 2.156-2.24 3.789a32.51 32.51 0 00-.66 1.811c-.013.024-.03.044-.041.069l-.008.008a.309.309 0 00-.081.146 26.598 26.598 0 00-1.204 2.403 3.15 3.15 0 01.02-.203c.142-1.726.057-3.075-.271-4.255-.32-1.142-.867-2.135-1.309-2.872-.202-.34-.421-.685-.636-1.021-.855-1.354-1.742-2.748-2.05-4.502-.033-.178-.211-.243-.328-.215-.114.029-.195.142-.199.276-.04 1.203-.077 2.484-.045 3.768.07 2.646.43 4.611 1.135 6.187.413.92.972 1.666 1.564 2.415.571.726 1.074 1.398 1.378 2.225l-.008.069a42.277 42.277 0 00-.827 2.475 61.849 61.849 0 00-.665 2.395c-.024-.146-.048-.292-.077-.438-.267-1.398-.676-2.451-1.292-3.322-.596-.843-1.386-1.524-2.006-2.018a39.145 39.145 0 00-.887-.685c-1.187-.903-2.415-1.835-3.144-3.16-.073-.13-.26-.15-.365-.106a.27.27 0 00-.13.122.247.247 0 00-.016.17c.247.96.515 1.981.855 2.994.7 2.083 1.536 3.57 2.626 4.68.636.649 1.381 1.127 2.151 1.605.75.462 1.414.895 1.92 1.491l.013.097c-.316 1.31-.608 2.622-.908 3.93-.154.665-.308 1.33-.47 1.99-.004-.012-.004-.028-.008-.04-.21-1.18-.539-2.067-1.041-2.796-.486-.71-1.135-1.277-1.645-1.69a31.63 31.63 0 00-.717-.563l-.008-.008c-.973-.75-1.978-1.528-2.565-2.634-.065-.121-.231-.134-.32-.093a.237.237 0 00-.134.267c.194.807.409 1.67.68 2.517.564 1.754 1.24 3.002 2.132 3.93.518.543 1.134.94 1.766 1.337.584.365 1.103.705 1.504 1.163a47.415 47.415 0 01-1.341 4.315c-.79 2.132-1.804 4.186-3.104 6.021-1.252 1.763-2.78 3.303-4.514 4.4-.223.142-.454.276-.68.406a.187.187 0 00-.045.3c.1.097.275.097.4.024 1.812-1 3.433-2.46 4.782-4.186 1.341-1.718 2.419-3.666 3.262-5.709 1.025-2.488 1.73-5.089 2.35-7.69.085-.353.166-.71.251-1.062.733-.065 1.447.093 2.229.288.834.21 1.657.397 2.536.369 1.507-.04 3.14-.568 5.142-1.65.968-.526 1.904-1.114 2.78-1.669.089-.053.137-.178.105-.296zm-3.335-7.09c-.855.704-1.698 1.26-2.508 1.644-.956.458-1.908.657-2.71.79l-.142.025c-.43.073-.904.15-1.378.267 1.126-.79 2.354-1.276 3.521-1.701l.393-.142a30.058 30.058 0 002.12-.83 12.27 12.27 0 001.689-.925c-.332.316-.66.604-.985.871zm-4.068-.576c1.33-.908 2.796-1.309 4.214-1.694.503-.137 1.017-.275 1.524-.437a13.29 13.29 0 001.264-.47c-.413.4-.81.757-1.208 1.086A11.315 11.315 0 0161.8 42.58c-.762.36-1.552.649-2.314.924-.859.312-1.746.636-2.61 1.066a10.9 10.9 0 00-1.118.636c.657-.851 1.564-1.9 2.642-2.638zm6.536-10.114c-.665.945-1.37 1.743-2.09 2.375-.86.75-1.796 1.252-2.602 1.645l-.142.069c-.446.215-.932.454-1.41.733.928-1.126 2.07-1.997 3.172-2.791.114-.081.228-.162.34-.244l.03-.02a32.83 32.83 0 001.96-1.483c.58-.482 1.094-.984 1.548-1.511-.271.441-.539.847-.806 1.227zm-4.53.819c1.098-1.293 2.516-2.152 3.886-2.986.486-.296.984-.6 1.466-.92.454-.304.86-.6 1.22-.895a22.111 22.111 0 01-.928 1.454 12.07 12.07 0 01-2.018 2.225c-.684.587-1.422 1.122-2.135 1.637-.802.579-1.637 1.175-2.403 1.867-.373.333-.705.67-1.005 1.014.406-1.026 1.013-2.33 1.917-3.396zm-6.2 6.763l-.089-.114c-.502-.64-1.073-1.43-1.47-2.41-.337-.831-.584-1.808-.742-2.906a19.74 19.74 0 01-.142-1.305c.154.608.36 1.212.624 1.824.308.709.66 1.386 1.005 2.042l.194.369c.576 1.102 1.155 2.285 1.455 3.63-.267-.413-.563-.79-.835-1.13zm.872-.608c-.349-.9-.787-1.738-1.212-2.549-.377-.717-.766-1.463-1.086-2.24a11.484 11.484 0 01-.741-2.744 18.988 18.988 0 01-.158-1.616c.174.385.377.782.615 1.199.264.458.552.912.831 1.353.786 1.24 1.605 2.525 1.974 4.093.3 1.272.263 2.658.174 3.732-.106-.406-.24-.81-.397-1.228zm-3.392 7.597l-.117-.073c-.66-.409-1.427-.924-2.063-1.625-.539-.591-1.02-1.316-1.442-2.151-.15-.296-.288-.604-.426-.936.296.441.645.867 1.046 1.288.478.499.997.969 1.503 1.423l.284.255c.826.745 1.673 1.548 2.293 2.524-.357-.26-.733-.494-1.078-.705zm.734-.652c-.568-.644-1.208-1.224-1.832-1.783-.551-.494-1.122-1.009-1.633-1.56a8.718 8.718 0 01-1.402-2.026c-.186-.377-.36-.77-.526-1.195.263.267.559.539.899.818.377.312.778.616 1.163.908 1.094.826 2.22 1.685 2.97 2.852.596.932.891 2.022 1.058 2.881a9.625 9.625 0 00-.697-.895zm-2.063 8.432l-.097-.06c-.543-.341-1.167-.767-1.686-1.35a7.933 7.933 0 01-1.17-1.8 15.56 15.56 0 01-.284-.631c.223.324.474.636.766.948.392.417.818.81 1.231 1.187l.231.21c.657.6 1.325 1.249 1.824 2.035-.272-.203-.555-.377-.815-.54zm.616-.551c-.462-.54-.989-1.021-1.5-1.487-.449-.414-.919-.839-1.332-1.305a7.22 7.22 0 01-1.139-1.694c-.142-.291-.271-.6-.397-.928.203.203.426.414.68.624.309.26.637.515.953.758.895.689 1.82 1.402 2.423 2.379.466.75.697 1.624.83 2.334a7.581 7.581 0 00-.518-.681zm9.554-1.544c-.887.332-1.73.527-2.508.584-.92.064-1.774-.11-2.488-.288l-.125-.033c-.377-.093-.79-.198-1.22-.267 1.13-.304 2.273-.288 3.36-.247.117.004.234.008.356.016h.012c.648.028 1.32.057 1.993.028a8.984 8.984 0 001.625-.214c-.344.158-.68.3-1.005.421zm1.95-1.288a8.325 8.325 0 01-2.387.514c-.73.049-1.467.016-2.18-.016-.802-.032-1.633-.069-2.468.004a8.29 8.29 0 00-1.09.166c.754-.539 1.759-1.167 2.837-1.442 1.337-.34 2.678-.158 3.975.016.457.06.931.125 1.398.166.42.036.81.048 1.175.04-.438.22-.851.398-1.26.551z" fill="#1B3764"/><path d="M32.074 58.587c.49.373 1.017.766 1.569 1.122 1.134.738 2.078 1.127 2.97 1.22.518.057 1.017-.016 1.523-.102.474-.08.904-.137 1.337-.064l.097.644c.243 1.572.54 3.148 1.03 4.672.405 1.252.952 2.46 1.665 3.541.717 1.086 1.613 2.03 2.638 2.71.073.05.174.058.239.005.056-.045.056-.134-.012-.182a8.235 8.235 0 01-.385-.272c-.977-.733-1.811-1.718-2.468-2.824-.685-1.15-1.187-2.419-1.556-3.72a27.849 27.849 0 01-.591-2.621c.259-.252.583-.43.948-.62.393-.207.778-.413 1.11-.71.571-.51 1.033-1.219 1.45-2.232.203-.49.37-.993.523-1.463a.143.143 0 00-.065-.166c-.052-.028-.15-.028-.194.04-.401.629-1.033 1.042-1.645 1.443l-.008.004a17.3 17.3 0 00-.45.3c-.324.223-.733.527-1.054.924-.332.41-.57.92-.75 1.609-.003.008-.003.016-.003.024-.065-.401-.126-.802-.187-1.203-.117-.79-.23-1.585-.352-2.375l.012-.057c.328-.328.741-.555 1.212-.794.482-.247.944-.494 1.353-.85.697-.609 1.264-1.451 1.779-2.655.247-.583.458-1.175.648-1.734a.142.142 0 00-.069-.178c-.06-.033-.174-.029-.223.044-.494.75-1.268 1.248-2.014 1.726-.186.122-.376.244-.559.365-.393.267-.891.632-1.284 1.102-.405.486-.697 1.094-.924 1.909l-.069.255a35.127 35.127 0 00-.28-1.45c-.109-.507-.23-1.01-.372-1.508l-.004-.04c.218-.479.547-.851.924-1.257.385-.413.753-.83 1.04-1.357.495-.9.8-2.05.965-3.618.081-.758.118-1.52.15-2.237a.173.173 0 00-.105-.174.158.158 0 00-.203.113c-.267 1.025-.859 1.812-1.43 2.573-.142.19-.288.385-.426.576-.295.417-.668.98-.911 1.64-.252.681-.365 1.48-.36 2.509v.121c-.18-.502-.378-1-.6-1.483a.18.18 0 00-.041-.089l-.004-.004c-.008-.012-.012-.028-.02-.04a21.1 21.1 0 00-.304-1.107c-.308-1-.677-1.746-1.151-2.354-.462-.587-1.03-1.05-1.47-1.386-.208-.153-.418-.311-.625-.457-.847-.612-1.718-1.244-2.314-2.176a.19.19 0 00-.243-.065c-.06.036-.085.113-.056.19.25.685.526 1.419.843 2.136.652 1.483 1.329 2.528 2.13 3.29.467.446.99.766 1.524 1.082.523.308.985.595 1.366 1.009v.008a.33.33 0 01.08.101l.074.162c.563 1.256.944 2.59 1.232 3.935a9.849 9.849 0 00-.227-.357c-.564-.863-1.094-1.467-1.678-1.9-.567-.422-1.187-.69-1.661-.876-.219-.085-.446-.166-.669-.247-.9-.324-1.827-.656-2.61-1.37a.163.163 0 00-.23.017.17.17 0 00.008.202c.421.58.871 1.196 1.353 1.787.997 1.22 1.885 2.014 2.792 2.496.53.284 1.066.43 1.613.564.535.133 1.013.267 1.459.543l.036.064c.194 1.066.348 2.136.506 3.201a13.81 13.81 0 00-.47-.417c-.68-.575-1.276-.928-1.88-1.102-.583-.17-1.179-.178-1.633-.166-.21.004-.425.016-.632.028-.85.049-1.722.093-2.556-.255-.085-.037-.175.036-.199.105-.053.081-.032.158.028.203zm1.71-4.802c.296.231.612.438.96.628.402.223.815.41 1.216.592l.227.101c.673.308 1.378.653 2.01 1.175a9.31 9.31 0 00-.803-.222l-.085-.02c-.47-.118-1.025-.28-1.572-.6a7.429 7.429 0 01-1.41-1.095c-.178-.17-.356-.356-.543-.559zm4.429 2.107a6.902 6.902 0 00-.632-.43c-.49-.295-1.005-.53-1.5-.757-.441-.203-.895-.41-1.328-.656a6.833 6.833 0 01-1.35-1.021 14.136 14.136 0 01-.664-.701c.223.117.462.23.73.34.291.122.59.227.883.332.822.296 1.673.6 2.419 1.204.603.486 1.093 1.15 1.442 1.69zm-5.255-8.764c.247.336.526.657.846.968.353.345.73.665 1.094.973l.017.012c.065.053.125.105.19.162.616.523 1.252 1.094 1.75 1.807-.267-.19-.546-.352-.802-.502l-.08-.049c-.459-.271-.993-.616-1.468-1.098a7.995 7.995 0 01-1.13-1.507 9.722 9.722 0 01-.417-.766zm4.04 3.57a6.603 6.603 0 00-.552-.648c-.421-.446-.887-.84-1.337-1.22-.4-.34-.81-.689-1.191-1.07a7.2 7.2 0 01-1.09-1.414c-.166-.284-.324-.58-.482-.908.202.195.425.39.68.588.272.21.552.417.827.616.774.559 1.572 1.138 2.164 1.957.486.669.786 1.47.98 2.099zm1.83 2.828c.244-.782.641-1.459 1.034-2.087l.13-.21c.235-.373.478-.758.693-1.163a7.17 7.17 0 00.457-1.05c-.044.272-.093.527-.145.77a7.706 7.706 0 01-.576 1.69c-.283.563-.656 1.005-.984 1.361l-.057.065a7.86 7.86 0 00-.551.624zm-.23-.324c0-.64.04-1.467.28-2.204.291-.912.838-1.633 1.36-2.334.187-.247.378-.503.556-.762.162-.235.304-.462.422-.68-.05.34-.106.652-.17.951a6.958 6.958 0 01-.568 1.593c-.227.446-.494.867-.75 1.276-.291.462-.591.936-.838 1.455a7.08 7.08 0 00-.292.705zm1.268 4.327c.413-.55.956-.988 1.48-1.39l.177-.137a17 17 0 00.96-.77c.26-.231.487-.47.681-.717-.097.19-.194.364-.295.535a5.663 5.663 0 01-.957 1.207c-.409.385-.887.652-1.3.867l-.073.037c-.21.109-.446.23-.673.368zm-.182-.291c.138-.503.364-1.135.762-1.658.498-.656 1.207-1.11 1.896-1.551.243-.155.494-.317.733-.483a7.22 7.22 0 00.572-.441 8.28 8.28 0 01-.37.684 5.13 5.13 0 01-.927 1.135c-.328.304-.693.58-1.041.85-.397.305-.807.617-1.171.97-.17.161-.32.327-.454.494zm.766 4.878c.332-.442.761-.794 1.179-1.118l.146-.114c.263-.202.535-.417.786-.644a4.65 4.65 0 00.498-.527c-.065.126-.13.247-.198.36a4.642 4.642 0 01-.778 1.014c-.337.324-.726.547-1.062.721l-.06.032a9.362 9.362 0 00-.511.276zm-.167-.255c.114-.413.292-.92.604-1.345.405-.551.989-.928 1.548-1.297.199-.13.405-.263.6-.405.162-.114.304-.227.433-.34-.089.19-.182.364-.28.53a4.313 4.313 0 01-.753.948c-.267.256-.567.487-.855.71a10.6 10.6 0 00-.96.81c-.122.138-.235.26-.337.389zm-5.83-2.042c.3.097.616.162.956.202.397.049.798.065 1.183.077h.008c.07.004.142.004.211.008.644.025 1.325.073 1.981.304-.255.02-.506.061-.733.102l-.077.012c-.434.073-.948.133-1.487.052a5.367 5.367 0 01-1.459-.466 6.045 6.045 0 01-.583-.291zm-1.24-.945c.215.025.446.033.697.033.28 0 .563-.016.839-.032.778-.045 1.58-.09 2.358.178.628.215 1.195.632 1.617.989a4.922 4.922 0 00-.64-.15c-.49-.086-.985-.102-1.463-.122-.426-.016-.864-.032-1.293-.093a4.918 4.918 0 01-1.39-.417 9.074 9.074 0 01-.725-.386z" fill="#1B3764"/></svg>