<svg width="141" height="89" fill="none" xmlns="http://www.w3.org/2000/svg"><path d="M0 49.937v-5.043h1.166v4.017H3.61v1.02H0v.006zm7.686.033c-.378 0-.721-.072-1.026-.218a2.549 2.549 0 01-1.297-1.403 2.64 2.64 0 01-.18-.949c0-.334.064-.653.19-.958.125-.305.3-.576.522-.813a2.464 2.464 0 011.805-.774 2.37 2.37 0 011.81.803c.218.247.388.523.508.828.117.304.18.614.18.934 0 .334-.063.653-.184.958-.121.305-.3.576-.528.813-.227.237-.494.43-.798.566a2.27 2.27 0 01-1.002.213zm-1.312-2.555c0 .193.03.382.087.566.058.184.14.344.252.484.111.14.252.256.416.339.165.087.353.126.566.126.223 0 .417-.044.581-.131.165-.087.305-.203.412-.353a1.748 1.748 0 00.329-1.05c0-.194-.03-.383-.087-.562a1.453 1.453 0 00-.257-.484 1.253 1.253 0 00-.421-.339 1.242 1.242 0 00-.561-.12c-.223 0-.417.043-.581.125-.165.087-.3.199-.412.344a1.5 1.5 0 00-.246.489 2.279 2.279 0 00-.078.566zm8.914-1.036a.452.452 0 00-.15-.111 4.893 4.893 0 00-.32-.16 2.833 2.833 0 00-.42-.15 1.636 1.636 0 00-.455-.063c-.198 0-.353.034-.46.102-.111.067-.164.174-.164.314a.32.32 0 00.125.266c.083.068.204.121.358.175.155.048.349.106.577.174.324.082.6.189.837.305.237.12.416.276.542.46.126.183.189.435.189.745 0 .28-.054.523-.155.716a1.328 1.328 0 01-.421.474 1.792 1.792 0 01-.605.262c-.228.053-.46.082-.702.082a4.207 4.207 0 01-1.495-.285 3.212 3.212 0 01-.654-.34l.513-1.016c.02.025.082.068.184.131s.232.13.387.198.324.131.513.18c.189.053.383.077.576.077.208 0 .363-.034.465-.097a.305.305 0 00.155-.27.333.333 0 00-.16-.296 1.57 1.57 0 00-.43-.189 24.29 24.29 0 00-.63-.189 3.366 3.366 0 01-.765-.319 1.158 1.158 0 01-.445-.43 1.267 1.267 0 01-.145-.635c0-.353.082-.648.252-.895.169-.242.392-.426.677-.552.286-.126.595-.188.93-.188a2.7 2.7 0 01.686.087c.223.058.426.125.62.213.194.087.363.169.513.256l-.523.968zm109.859-.343v2.885h-1.167v-5.043h.925l2.337 2.967v-2.967h1.167v5.038h-.949l-2.313-2.88zm6.422-2.158l1.084 2.231 1.099-2.231h1.277l-1.795 3.32v1.718h-1.157v-1.728l-1.766-3.305h1.258v-.005zm4.729 2.472a2.537 2.537 0 01.668-1.708c.218-.242.484-.435.793-.58a2.509 2.509 0 011.065-.218c.474 0 .886.101 1.23.304.343.204.604.47.779.794l-.896.625a1.064 1.064 0 00-.3-.422 1.069 1.069 0 00-.411-.208 1.703 1.703 0 00-.431-.058 1.23 1.23 0 00-.581.131 1.161 1.161 0 00-.411.353c-.111.145-.189.31-.242.49a1.881 1.881 0 00.015 1.112c.062.184.15.349.266.49.116.14.256.256.421.338.164.082.348.126.547.126.14 0 .285-.024.435-.073.145-.048.281-.12.407-.222a.938.938 0 00.285-.402l.954.561a1.548 1.548 0 01-.489.634 2.54 2.54 0 01-.77.402c-.285.092-.571.14-.847.14-.362 0-.696-.072-1.006-.222a2.534 2.534 0 01-.789-.596 2.704 2.704 0 01-.692-1.79zM66.455 0v.426c-.426.014-.75.068-.973.16a.723.723 0 00-.436.513c-.072.246-.106.638-.106 1.161v10.58c0 .513.039.895.116 1.152.078.256.223.426.436.513.213.087.532.14.958.17v.425a29.4 29.4 0 00-1.684-.053c-.683-.005-1.38-.01-2.091-.01-.77 0-1.49.005-2.163.01-.678.01-1.22.024-1.631.053v-.426c.484-.029.851-.087 1.098-.17a.784.784 0 00.504-.512c.087-.257.125-.64.125-1.152V1.428l.213-.044-5.352 13.697h-.344L49.109 1.384v9.534c0 .954.039 1.685.116 2.188.078.503.271.866.576 1.089.305.223.794.382 1.462.48v.425a12.552 12.552 0 00-1.108-.053c-.455-.005-.881-.01-1.278-.01-.315 0-.634.005-.958.01-.33.01-.596.024-.809.053v-.426c.44-.101.77-.252.983-.46.213-.208.353-.537.426-.992.072-.455.106-1.08.106-1.878V2.26c0-.527-.034-.915-.106-1.161-.073-.247-.218-.421-.436-.513-.222-.092-.542-.146-.973-.16V0c.213.015.484.029.809.044.329.014.648.019.958.019.823 0 1.611-.005 2.366-.02C51.998.03 52.681.016 53.291 0l4.225 9.515-.639.702L60.821.063h1.859c.711 0 1.408-.005 2.09-.02A101.92 101.92 0 0066.456 0zm23.783 0a39.578 39.578 0 00-.117 2.057 61.584 61.584 0 00-.033 1.524c0 .3.004.586.019.852.014.271.029.499.043.683h-.488c-.17-1.181-.455-2.11-.852-2.783-.397-.678-.866-1.152-1.399-1.428a3.604 3.604 0 00-1.674-.416h-.276c-.368 0-.649.034-.833.097a.573.573 0 00-.372.372c-.063.184-.097.475-.097.876v11.437c0 .382.034.672.097.866.063.194.188.32.372.382.184.063.46.097.833.097h.706c.47 0 .963-.155 1.481-.46.518-.305.997-.827 1.438-1.568.44-.74.774-1.747 1.002-3.03h.488a24.162 24.162 0 00-.063 1.965c0 .354.005.867.02 1.525.014.663.058 1.345.126 2.057a71.018 71.018 0 00-2.454-.053c-.91-.005-1.723-.01-2.434-.01h-2.057c-.862 0-1.772.005-2.73.01-.958.01-1.854.024-2.676.053v-.426c.44-.03.77-.087.982-.17.213-.082.353-.256.426-.512.073-.257.107-.64.107-1.152V2.26c0-.527-.034-.915-.107-1.161-.073-.247-.218-.421-.436-.513-.222-.092-.542-.146-.968-.16V0c.823.015 1.719.029 2.677.044.958.014 1.868.019 2.73.019h2.056c.654 0 1.399-.005 2.231-.01A57.878 57.878 0 0090.239 0zm-3.093 7.294v.425H83.52v-.425h3.625zm.62-2.812a21.216 21.216 0 00-.073 1.853c.005.426.01.818.01 1.171 0 .354.004.746.019 1.172.014.426.048 1.045.106 1.853h-.488a3.918 3.918 0 00-.523-1.427 2.974 2.974 0 00-1.012-1.012 2.73 2.73 0 00-1.427-.373v-.425c.542 0 1.011-.15 1.408-.45.397-.3.726-.664.983-1.1.256-.435.425-.856.513-1.267h.483v.005zM44.492 36.206c.997 0 1.815.136 2.454.407.638.27 1.2.595 1.684.982.155.126.3.194.426.194.27 0 .445-.426.532-1.278h.489a65.319 65.319 0 00-.063 2.081c-.015.818-.02 1.902-.02 3.253h-.488c-.102-1.026-.276-1.883-.523-2.57-.247-.688-.73-1.278-1.442-1.762a3.832 3.832 0 00-1.045-.47 4.283 4.283 0 00-1.152-.169c-.828 0-1.51.223-2.048.673-.542.45-.972 1.03-1.292 1.747-.32.716-.547 1.5-.682 2.347-.136.847-.204 1.67-.204 2.464 0 2.56.315 4.428.94 5.609.624 1.18 1.456 1.771 2.497 1.771.227 0 .426-.019.595-.063.17-.043.32-.106.45-.193.155-.111.271-.257.344-.426.072-.17.106-.382.106-.639V48.03c0-.697-.053-1.215-.16-1.559-.106-.343-.314-.575-.629-.701-.314-.126-.77-.199-1.364-.213v-.426c.329.014.726.024 1.195.034.47.01.958.014 1.471.019.513.01.983.01 1.409.01a76.058 76.058 0 003.286-.063v.426c-.358.029-.59.14-.707.343-.116.199-.17.697-.17 1.496v4.225h-.425a3.047 3.047 0 00-.17-.789c-.101-.285-.26-.426-.488-.426-.116 0-.276.03-.48.087-.207.058-.532.194-.972.407a14.87 14.87 0 01-1.762.716 5.76 5.76 0 01-1.844.31c-2.676 0-4.68-.678-6.016-2.038-1.335-1.36-2.003-3.252-2.003-5.686 0-1.593.353-2.987 1.055-4.182a7.38 7.38 0 012.923-2.793c1.239-.687 2.672-1.02 4.293-1.02zm25.984.3l5.164 13.31c.199.483.412.827.639 1.035.228.208.436.314.62.329v.426a36.436 36.436 0 00-1.791-.053c-.683-.005-1.38-.01-2.091-.01-.726 0-1.408.005-2.047.01-.64.01-1.152.024-1.534.053v-.426c.725-.03 1.185-.155 1.374-.373.194-.222.145-.692-.14-1.418l-3.412-9.452.426-.745-2.943 7.656c-.47 1.225-.702 2.14-.692 2.754.005.61.189 1.021.542 1.225.353.208.818.324 1.384.353v.426a33.144 33.144 0 00-1.418-.053c-.42-.005-.876-.01-1.374-.01-.271 0-.557.005-.867.01-.305.01-.566.024-.779.053v-.426c.33-.058.649-.266.973-.63.32-.362.648-.982.992-1.867L68.24 36.5c.344.029.716.044 1.118.044.402.004.774-.01 1.118-.04zm.746 8.958v.426h-6.36l.213-.426h6.147zm30.867-8.958v.426c-.426.087-.75.232-.973.45-.222.213-.367.542-.435.992-.073.45-.107 1.08-.107 1.887v11.35a5.155 5.155 0 00-.692-.044c-.247 0-.518.015-.798.044l-9.452-10.328v6.146c0 .954.038 1.684.116 2.188.077.503.27.866.576 1.089.305.222.793.382 1.461.479v.426a12.55 12.55 0 00-1.108-.053c-.455-.005-.88-.01-1.278-.01-.314 0-.634.005-.958.01-.33.01-.595.024-.808.053v-.426c.44-.102.77-.252.982-.46.213-.208.354-.537.426-.992.073-.455.107-1.08.107-1.878v-9.089c0-.527-.034-.915-.107-1.161-.072-.247-.218-.422-.435-.513-.223-.093-.542-.146-.973-.16v-.426c.213.014.484.029.808.043a24.678 24.678 0 002.004 0c.343-.014.648-.029.92-.043l8.725 9.215v-5.034c0-.953-.038-1.679-.116-2.187-.077-.504-.266-.871-.566-1.099-.3-.227-.789-.382-1.471-.47v-.425c.285.014.653.029 1.108.043.455.015.88.02 1.278.02.329 0 .648-.005.968-.02.319-.014.585-.029.798-.043zM47.308 84.749c.668 0 1.186.155 1.559.46.368.305.556.764.556 1.374 0 .61-.184 1.07-.556 1.375-.368.305-.89.46-1.559.46-.682 0-1.205-.155-1.568-.46-.363-.305-.542-.765-.542-1.375s.18-1.07.542-1.374c.363-.31.886-.46 1.568-.46zm21.629-11.736v.425c-.425.015-.75.068-.972.16a.723.723 0 00-.436.513c-.072.247-.106.639-.106 1.162v10.58c0 .512.038.895.116 1.151.077.257.222.426.435.513.213.087.533.14.959.17v.426a26 26 0 00-1.588-.054 260.23 260.23 0 00-1.974-.01c-.77 0-1.491.005-2.164.01-.677.01-1.22.025-1.63.054v-.426c.44-.03.769-.087.982-.17.213-.082.353-.256.425-.513.073-.256.107-.639.107-1.152v-10.58c0-.527-.034-.914-.107-1.16-.072-.248-.217-.422-.435-.514-.223-.092-.542-.145-.968-.16v-.425a102.016 102.016 0 003.794.063c.668 0 1.326-.005 1.975-.02.649-.014 1.176-.029 1.587-.043zm7.807 0v.406c-.484.126-1.021.363-1.612.702-.59.344-1.22.89-1.887 1.64L69.32 80.22l1.728-2.26 5.057 8.426c.184.3.368.547.557.745.184.199.435.383.745.557v.426a45.995 45.995 0 00-1.907-.054c-.677-.004-1.321-.01-1.93-.01-.33 0-.732.005-1.216.01-.484.01-1.094.025-1.834.054v-.426c.668-.03 1.055-.107 1.162-.233.106-.125.053-.367-.16-.726l-3.093-5.227a3.263 3.263 0 00-.382-.575 1.24 1.24 0 00-.33-.276 1.067 1.067 0 00-.415-.107v-.45c.624-.029 1.214-.237 1.77-.629.557-.392 1.225-1.026 2.005-1.907l.726-.813c.595-.668.914-1.249.948-1.737.034-.49-.116-.876-.45-1.152-.334-.276-.77-.421-1.311-.436v-.406c.595.014 1.147.029 1.655.043.503.015 1.156.02 1.95.02.866.004 1.583-.02 2.149-.063zm13.997 11.736c.668 0 1.186.155 1.558.46.368.305.557.764.557 1.374 0 .61-.184 1.07-.557 1.375-.367.305-.89.46-1.558.46-.682 0-1.205-.155-1.568-.46-.363-.305-.542-.765-.542-1.375s.179-1.07.542-1.374c.363-.31.886-.46 1.568-.46zM36.763 11.564l-25.902 23.37.973 1.078 25.902-23.37-.973-1.078zm64.975-.003l-.972 1.079 25.905 23.365.973-1.078-25.906-23.366zM12.342 57.787l-.973 1.078 25.906 23.366.972-1.078-25.905-23.366zm114.835-.004l-25.902 23.37.973 1.077 25.902-23.369-.973-1.078z" fill="#1B3764"/></svg>