<svg width="189" height="76" fill="none" xmlns="http://www.w3.org/2000/svg"><path d="M16.073 30.151v.354c-.353.01-.62.055-.808.131a.62.62 0 00-.363.424c-.06.207-.091.53-.091.964v8.789c0 .424.03.742.096.96.066.211.187.352.363.423.177.07.445.116.798.142v.353a24.28 24.28 0 00-1.398-.046 191.57 191.57 0 00-1.737-.01c-.636 0-1.237.005-1.797.01-.56.005-1.015.02-1.358.046v-.354c.404-.025.707-.07.914-.14a.65.65 0 00.419-.425c.07-.212.106-.53.106-.959v-9.475l.176-.036-4.447 11.379h-.283L1.666 31.302v7.926c0 .792.03 1.398.096 1.817.065.42.222.722.48.904.252.181.656.318 1.21.399v.353c-.236-.025-.544-.04-.923-.045a67.84 67.84 0 00-1.065-.01c-.263 0-.525.004-.798.01a5.72 5.72 0 00-.666.045v-.353c.369-.081.636-.212.813-.379.176-.172.293-.444.353-.823.06-.379.091-.898.091-1.56V32.03c0-.439-.03-.757-.09-.964a.62.62 0 00-.364-.424c-.182-.076-.45-.121-.803-.136v-.354c.177.01.404.026.671.036.273.01.535.02.798.02.687 0 1.343-.005 1.969-.02.626-.01 1.191-.025 1.7-.036l3.51 7.906-.53.585 3.275-8.435h1.54c.59 0 1.171-.005 1.737-.02.57-.01 1.04-.025 1.403-.036zm12.67 0c-.045.591-.08 1.162-.096 1.712-.02.55-.025.974-.025 1.267 0 .247.005.484.015.707.01.227.025.413.035.565h-.403c-.142-.98-.379-1.752-.707-2.312-.333-.56-.717-.96-1.161-1.186a2.963 2.963 0 00-1.393-.344h-.233c-.308 0-.535.026-.691.081a.47.47 0 00-.308.308c-.05.151-.08.394-.08.727v9.5c0 .318.024.56.08.717a.474.474 0 00.308.318c.151.056.383.081.691.081h.586c.389 0 .803-.126 1.232-.379.429-.252.828-.686 1.196-1.302.369-.616.646-1.454.833-2.519h.409c-.035.424-.05.97-.05 1.63 0 .298.004.717.014 1.268.01.55.046 1.12.107 1.71a59.223 59.223 0 00-2.04-.044c-.757-.006-1.428-.01-2.02-.01h-1.71c-.717 0-1.47.004-2.267.01-.798.005-1.54.02-2.226.045v-.353c.368-.026.636-.071.818-.142.176-.07.292-.212.353-.424.06-.212.09-.53.09-.959V32.03c0-.439-.03-.757-.09-.964a.62.62 0 00-.363-.424c-.182-.076-.455-.121-.808-.131v-.354c.686.01 1.428.026 2.226.036.798.01 1.555.02 2.267.02h1.71c.546 0 1.162-.005 1.853-.01.687-.01 1.308-.025 1.848-.05zm-2.57 6.063v.354H23.16v-.354h3.014zm.516-2.342c-.046.671-.071 1.186-.061 1.54.005.353.01.681.01.974a34.92 34.92 0 00.111 2.514h-.409a3.216 3.216 0 00-.434-1.186 2.493 2.493 0 00-.843-.844 2.247 2.247 0 00-1.186-.307v-.354c.45 0 .838-.126 1.171-.373.328-.248.6-.55.813-.914a3.45 3.45 0 00.424-1.055h.404v.005zm12.459-3.968c.828 0 1.504.111 2.04.338.53.223.999.495 1.398.813.131.106.247.162.353.162.222 0 .374-.354.444-1.065h.41c-.026.474-.041 1.05-.056 1.726-.01.682-.02 1.58-.02 2.7h-.404c-.081-.852-.227-1.56-.434-2.135-.207-.57-.606-1.06-1.197-1.463a3.109 3.109 0 00-.868-.39 3.45 3.45 0 00-.96-.14c-.686 0-1.251.186-1.7.56a3.9 3.9 0 00-1.07 1.454 7.663 7.663 0 00-.566 1.948 12.615 12.615 0 00-.172 2.05c0 2.125.258 3.68.778 4.659.52.98 1.211 1.469 2.075 1.469.186 0 .353-.02.494-.056.142-.035.268-.085.374-.161a.832.832 0 00.282-.353c.061-.142.091-.318.091-.53v-1.772c0-.58-.045-1.01-.13-1.293-.092-.282-.263-.48-.526-.585-.262-.106-.636-.167-1.136-.177v-.353c.273.01.601.02.995.025.389.005.797.01 1.221.02.424.005.818.01 1.172.01.565 0 1.09-.005 1.57-.02.479-.01.863-.025 1.16-.035v.353c-.292.025-.49.116-.585.283-.096.166-.141.58-.141 1.242v3.508h-.354a2.44 2.44 0 00-.141-.656c-.08-.237-.217-.354-.409-.354-.096 0-.227.026-.399.071-.171.046-.439.162-.808.338-.459.222-.949.424-1.463.596a4.823 4.823 0 01-1.535.257c-2.221 0-3.887-.565-4.998-1.69-1.11-1.126-1.665-2.701-1.665-4.726 0-1.322.292-2.483.878-3.473a6.11 6.11 0 012.428-2.322c1.035-.555 2.226-.833 3.574-.833zm14.497.247l4.291 11.06c.167.405.343.687.53.859.187.172.358.262.515.273v.353c-.424-.025-.924-.04-1.49-.046a195.27 195.27 0 00-1.736-.01c-.6 0-1.17.005-1.7.01-.53.006-.96.02-1.278.046v-.353c.6-.026.984-.127 1.14-.308.162-.182.122-.576-.115-1.177l-2.837-7.85.353-.62-2.443 6.36c-.389 1.015-.58 1.777-.576 2.287.005.51.157.848.455 1.02.293.171.681.267 1.15.293v.353c-.439-.025-.827-.04-1.176-.045-.348-.006-.732-.01-1.14-.01-.223 0-.465.004-.717.01a5.46 5.46 0 00-.646.045v-.353c.272-.046.54-.223.807-.525.268-.303.54-.818.823-1.55l3.933-10.122c.282.026.595.036.928.036.334 0 .646-.01.93-.036zm.621 7.446v.354h-5.28l.177-.354h5.103zm18.553-7.446v.354c-.354.07-.621.197-.808.373-.182.177-.303.455-.364.823-.06.374-.09.894-.09 1.57v9.43a4.101 4.101 0 00-.576-.035c-.207 0-.429.01-.666.035l-7.85-8.577v5.104c0 .792.03 1.398.096 1.817.066.42.222.722.48.904.252.181.656.318 1.211.399v.353c-.237-.025-.545-.04-.924-.045-.378-.006-.732-.01-1.065-.01-.262 0-.525.004-.797.01-.273.005-.495.02-.672.045v-.353c.369-.081.636-.212.813-.379.176-.172.293-.444.353-.823.06-.379.091-.898.091-1.56V32.03c0-.439-.03-.757-.09-.964a.62.62 0 00-.364-.424c-.182-.076-.455-.121-.808-.131v-.354c.177.01.404.026.672.036.272.01.535.02.797.02.293 0 .586-.005.868-.02.283-.01.535-.025.763-.035l7.249 7.657v-4.19c0-.792-.03-1.398-.096-1.817-.066-.419-.222-.722-.47-.913-.247-.187-.656-.318-1.222-.39v-.353c.238.01.546.026.924.036.379.01.732.02 1.066.02.272 0 .54-.005.807-.02.273-.01.495-.025.672-.036zm44.179 0c.344.01.793.026 1.358.036.561.01 1.126.02 1.691.02.591 0 1.156-.005 1.702-.02.545-.01.928-.02 1.151-.02 1.62 0 2.821.262 3.614.777.792.52 1.186 1.186 1.186 2.004 0 .414-.146.843-.444 1.287-.293.445-.742.833-1.348 1.172-.601.338-1.368.565-2.302.681v.035c1.217.06 2.191.248 2.923.566.732.318 1.262.706 1.595 1.16.333.455.495.925.495 1.41 0 1.18-.475 2.049-1.419 2.604-.944.555-2.246.833-3.897.833-.282 0-.701-.01-1.252-.025a56.12 56.12 0 00-1.973-.026c-.591 0-1.166.005-1.727.01-.56.005-1.014.02-1.358.046v-.353c.364-.026.636-.071.813-.142.177-.07.293-.212.353-.424.061-.212.091-.53.091-.959V32.03c0-.439-.03-.757-.091-.964a.617.617 0 00-.363-.424c-.182-.076-.449-.121-.808-.131v-.359h.01zm5.816.354c-.404 0-.662.1-.778.303-.116.202-.176.61-.176 1.221v8.789c0 .616.075 1.015.222 1.196.146.182.459.273.929.273.661 0 1.14-.268 1.443-.808.303-.535.455-1.302.455-2.297 0-.908-.217-1.61-.646-2.11-.43-.494-1.151-.742-2.156-.742h-1.292v-.303h1.524c.46 0 .818-.13 1.065-.398.248-.268.419-.621.515-1.066a6.74 6.74 0 00.142-1.428c0-.873-.096-1.535-.283-1.974-.197-.434-.515-.656-.964-.656zm15.275-.601c1.333 0 2.504.253 3.509.763a5.537 5.537 0 012.337 2.19c.555.95.833 2.105.833 3.463 0 1.323-.283 2.484-.848 3.473a5.989 5.989 0 01-2.368 2.322c-1.009.556-2.17.833-3.483.833-1.332 0-2.504-.252-3.508-.762a5.543 5.543 0 01-2.337-2.196c-.556-.959-.833-2.11-.833-3.458 0-1.322.287-2.483.858-3.473a6.052 6.052 0 012.367-2.322c1.005-.555 2.161-.833 3.473-.833zm-.07.318c-.591 0-1.106.268-1.54.798-.439.53-.772 1.262-1.01 2.196-.237.934-.353 2.014-.353 3.24 0 1.253.136 2.343.409 3.272.273.929.636 1.64 1.1 2.145.46.505.97.752 1.525.752.591 0 1.105-.267 1.54-.797.439-.53.772-1.267 1.009-2.206.237-.94.354-2.02.354-3.236 0-1.262-.137-2.358-.409-3.276-.273-.924-.636-1.636-1.101-2.136-.459-.5-.969-.752-1.524-.752zm16.501-.318c1.333 0 2.504.253 3.508.763a5.54 5.54 0 012.338 2.19c.555.95.833 2.105.833 3.463 0 1.323-.283 2.484-.848 3.473a5.989 5.989 0 01-2.368 2.322c-1.01.556-2.171.833-3.483.833-1.333 0-2.504-.252-3.509-.762a5.555 5.555 0 01-2.337-2.196c-.555-.959-.833-2.11-.833-3.458 0-1.322.288-2.483.858-3.473a6.055 6.055 0 012.368-2.322c1-.555 2.161-.833 3.473-.833zm-.076.318c-.59 0-1.105.268-1.539.798-.44.53-.773 1.262-1.01 2.196-.237.934-.353 2.014-.353 3.24 0 1.253.136 2.343.409 3.272.272.929.636 1.64 1.1 2.145.459.505.969.752 1.525.752.59 0 1.105-.267 1.539-.797.439-.53.773-1.267 1.01-2.206.237-.94.353-2.02.353-3.236 0-1.262-.136-2.358-.409-3.276-.272-.924-.636-1.636-1.1-2.136-.46-.5-.964-.752-1.525-.752zm15.635-.071v.354c-.354.01-.621.055-.808.131a.62.62 0 00-.364.424c-.06.207-.09.53-.09.964v8.789c0 .424.03.742.095.96.066.211.187.352.364.423.177.07.444.116.797.142v.353c-.343-.025-.782-.04-1.322-.046-.54-.005-1.085-.01-1.641-.01-.636 0-1.236.005-1.797.01-.56.005-1.014.02-1.358.046v-.354c.364-.025.636-.07.813-.14.177-.072.293-.213.353-.425.061-.212.091-.53.091-.959v-8.784c0-.439-.03-.757-.091-.964a.616.616 0 00-.363-.424c-.182-.075-.449-.121-.808-.131v-.353c.343.01.793.025 1.358.035.56.01 1.161.02 1.797.02.556 0 1.101-.005 1.641-.02.55-.015.989-.03 1.333-.04zm6.486 0v.339c-.404.106-.848.303-1.337.585-.49.283-1.015.737-1.57 1.363l-3.261 3.706 1.433-1.878 4.2 7.001c.152.248.308.455.46.621.151.167.358.318.62.46v.353a37.865 37.865 0 00-1.585-.045c-.56-.005-1.095-.01-1.605-.01-.273 0-.611.005-1.01.01-.398.005-.908.02-1.524.045v-.353c.555-.026.878-.091.964-.197.086-.106.046-.308-.131-.601l-2.57-4.341a2.598 2.598 0 00-.318-.48 1.19 1.19 0 00-.272-.232.998.998 0 00-.343-.09v-.374a2.715 2.715 0 001.469-.526c.459-.323 1.014-.853 1.665-1.585l.601-.671c.495-.555.757-1.035.788-1.444.03-.409-.096-.727-.374-.959-.278-.232-.641-.353-1.09-.363v-.338c.494.01.954.025 1.373.035.419.01.959.02 1.62.02.727.005 1.323-.015 1.797-.05zm7.391-.247c.767 0 1.363.076 1.792.233.424.15.787.313 1.08.48.141.08.257.145.343.186.086.04.172.06.258.06.186 0 .318-.257.388-.777h.409c-.01.247-.025.535-.045.868-.02.334-.03.768-.035 1.313a194.87 194.87 0 00-.011 2.145h-.408a5.964 5.964 0 00-.455-1.898 4.143 4.143 0 00-1.045-1.524 2.266 2.266 0 00-1.585-.601c-.52 0-.949.141-1.292.424-.343.283-.515.692-.515 1.222 0 .439.106.812.318 1.125.212.313.545.641 1 .985.454.343 1.055.772 1.797 1.292.53.369 1.014.732 1.443 1.1a4.55 4.55 0 011.035 1.242c.258.465.389 1.015.389 1.666 0 .793-.222 1.449-.666 1.969-.445.52-1.03.908-1.762 1.16a7.298 7.298 0 01-2.393.38c-.803 0-1.444-.071-1.923-.212a8.313 8.313 0 01-1.212-.445c-.262-.166-.459-.247-.601-.247-.186 0-.318.257-.388.777h-.409c.025-.308.04-.666.045-1.07.005-.404.01-.934.021-1.585.005-.651.01-1.474.01-2.484h.408c.046.828.182 1.6.399 2.322.217.722.556 1.303 1.01 1.747.454.444 1.06.666 1.817.666.651 0 1.166-.151 1.55-.459.384-.308.575-.732.575-1.277 0-.732-.242-1.343-.726-1.832-.485-.49-1.106-.99-1.863-1.5a29.694 29.694 0 01-1.56-1.136 4.757 4.757 0 01-1.161-1.277c-.288-.474-.434-1.035-.434-1.68 0-.778.207-1.414.621-1.904.414-.49.959-.853 1.63-1.09a6.433 6.433 0 012.151-.364zM41.02 4.533V3.437h2.742v1.096H41.02zm9.708 1.934V.05h2.721c.293 0 .566.06.813.182.248.12.465.282.646.49.182.206.328.433.43.686.1.252.15.51.15.777 0 .364-.085.707-.252 1.03-.166.323-.398.59-.696.797a1.788 1.788 0 01-1.05.308h-1.52v2.15h-1.242v-.004zm1.247-3.246h1.444c.152 0 .288-.04.409-.126a.858.858 0 00.288-.369c.07-.161.11-.343.11-.545 0-.222-.04-.414-.12-.57a.87.87 0 00-.318-.354.772.772 0 00-.42-.116h-1.393v2.08zm10.651 2.155v1.096H58.17V.05h4.377v1.095h-3.13V2.69h2.7v1.015h-2.7v1.67h3.21zm2.781 1.091V.05h2.837c.298 0 .566.06.818.182a2.1 2.1 0 01.651.49c.182.206.323.433.424.686.101.252.152.51.152.777 0 .273-.046.53-.142.783a1.939 1.939 0 01-.404.656 1.821 1.821 0 01-.615.434l1.464 2.413h-1.373L67.9 4.322h-1.247v2.15h-1.247v-.005zm1.247-3.246h1.565a.643.643 0 00.414-.141.94.94 0 00.288-.374 1.27 1.27 0 00.11-.525c0-.207-.04-.384-.126-.54a1.093 1.093 0 00-.323-.369.715.715 0 00-.418-.136h-1.51v2.085zm6.573 3.246V.05h4.31v1.095h-3.064v1.656h2.55v1.015h-2.55v2.655h-1.246v-.005zm11.454-1.091v1.096h-4.457V.05H84.6v1.095h-3.13V2.69h2.701v1.015h-2.7v1.67h3.21zm2.277-2.171c0-.393.07-.777.212-1.15.141-.38.348-.722.62-1.03a3.06 3.06 0 01.995-.742 3.153 3.153 0 011.338-.278c.59 0 1.1.131 1.535.389.429.257.752.595.964 1.014l-.96.662a1.585 1.585 0 00-.423-.576 1.59 1.59 0 00-.56-.298 2.163 2.163 0 00-.586-.085 1.688 1.688 0 00-1.398.691 2.15 2.15 0 00-.349.687 2.62 2.62 0 00-.11.757c0 .283.045.555.135.818.091.262.218.494.384.696.167.202.364.364.596.48.232.116.484.177.762.177.197 0 .399-.036.606-.101.207-.066.394-.172.57-.318.177-.147.308-.334.41-.56l1.019.585c-.126.318-.333.59-.621.812a3.033 3.033 0 01-.964.505 3.367 3.367 0 01-1.055.172c-.46 0-.879-.096-1.257-.283a3.209 3.209 0 01-.98-.757 3.634 3.634 0 01-.64-1.065 3.077 3.077 0 01-.243-1.202zm13.195-2.059h-2.054v5.32h-1.237v-5.32h-2.054V.051h5.34v1.095h.005zm10.142.585a1.497 1.497 0 00-.232-.171 2.535 2.535 0 00-.409-.207 4.492 4.492 0 00-.52-.177 2.189 2.189 0 00-.57-.076c-.339 0-.591.061-.763.187a.621.621 0 00-.257.53c0 .177.055.313.161.414.111.101.273.187.49.263.217.07.49.151.813.232a5.71 5.71 0 011.1.373c.308.147.551.339.712.576.167.237.247.55.247.939 0 .343-.065.636-.191.878a1.59 1.59 0 01-.525.59 2.339 2.339 0 01-.758.329 3.75 3.75 0 01-.903.106c-.318 0-.641-.035-.959-.1a5.29 5.29 0 01-.924-.284 3.938 3.938 0 01-.813-.449l.55-1.075a1.8 1.8 0 00.288.212 4.286 4.286 0 001.156.485c.237.06.475.09.712.09.338 0 .596-.055.767-.171a.536.536 0 00.263-.485.541.541 0 00-.207-.45 1.945 1.945 0 00-.581-.282 23.19 23.19 0 00-.878-.267 5.591 5.591 0 01-1.015-.384 1.48 1.48 0 01-.606-.535c-.131-.217-.196-.485-.196-.813 0-.44.106-.808.313-1.1a1.96 1.96 0 01.843-.677A2.993 2.993 0 01108.589 0c.303 0 .585.035.853.101s.52.151.757.262c.237.112.444.228.631.354l-.535 1.014zm8.324-.585h-2.054v5.32h-1.237v-5.32h-2.055V.051h5.341v1.095h.005zm5.199 5.366a2.958 2.958 0 01-2.261-1.01 3.463 3.463 0 01-.636-1.05 3.258 3.258 0 01.01-2.423c.161-.388.378-.737.661-1.04.283-.302.611-.545.994-.721A2.979 2.979 0 01123.848 0c.465 0 .889.096 1.272.283a3 3 0 01.98.752c.272.313.479.661.631 1.05a3.252 3.252 0 01-.01 2.408 3.339 3.339 0 01-.657 1.04 2.98 2.98 0 01-.994.716 2.963 2.963 0 01-1.252.263zm-1.863-3.251c0 .278.041.545.127.803.085.257.207.49.368.691.162.202.353.364.586.48.232.116.494.176.792.176.303 0 .571-.06.803-.186.237-.121.429-.288.585-.5.157-.207.278-.44.359-.697a2.56 2.56 0 00.121-.772c0-.278-.045-.545-.131-.798a2.296 2.296 0 00-.369-.686 1.687 1.687 0 00-1.368-.656c-.308 0-.575.06-.807.186a1.771 1.771 0 00-.586.495 2.255 2.255 0 00-.358.687 2.52 2.52 0 00-.122.777zm7.765 3.206V.05h2.837c.298 0 .565.06.818.182a2.1 2.1 0 01.651.49c.181.206.323.433.424.686a2.167 2.167 0 01.01 1.56 1.939 1.939 0 01-.404.656 1.828 1.828 0 01-.616.434l1.464 2.413h-1.373l-1.318-2.15h-1.246v2.15h-1.247v-.005zm1.247-3.246h1.564a.642.642 0 00.414-.141.936.936 0 00.288-.374c.071-.156.111-.333.111-.525 0-.207-.04-.384-.126-.54a1.098 1.098 0 00-.323-.369.716.716 0 00-.419-.136h-1.509v2.085zm11.029 2.155v1.096h-4.457V.05h4.377v1.095h-3.125V2.69h2.701v1.015h-2.701v1.67h3.205zm6.613-.843V3.437h2.741v1.096h-2.741zm-51.04 24.074a.657.657 0 01.171-.182l.005-.015c.793-.732 1.727-1.216 2.777-1.731 1.08-.525 2.125-1.06 3.094-1.848 1.656-1.343 3.115-3.25 4.599-5.997.717-1.333 1.353-2.695 1.943-3.973.066-.141.036-.298-.08-.373a.373.373 0 00-.48.086c-1.287 1.7-3.054 2.776-4.775 3.826-.419.257-.853.52-1.272.788-.904.58-2.065 1.383-3.044 2.443-1.005 1.09-1.823 2.473-2.57 4.346-.262.661-.52 1.363-.757 2.075l-.046.076-.01.01a.36.36 0 00-.09.166c-.51.894-.965 1.818-1.384 2.757.005-.076.016-.157.02-.233.167-1.979.066-3.528-.312-4.876-.369-1.313-.995-2.448-1.5-3.297-.232-.393-.484-.782-.727-1.17-.984-1.55-1.999-3.156-2.352-5.16a.312.312 0 00-.373-.247c-.132.035-.223.161-.228.318-.045 1.378-.09 2.852-.05 4.321.076 3.034.49 5.29 1.302 7.098.475 1.055 1.116 1.913 1.792 2.766.657.833 1.232 1.605 1.58 2.554l-.01.076a48.15 48.15 0 00-.949 2.842 73.553 73.553 0 00-.762 2.746l-.09-.5c-.309-1.6-.778-2.811-1.48-3.81-.681-.97-1.59-1.747-2.302-2.318-.328-.262-.676-.525-1.014-.787-1.363-1.035-2.772-2.105-3.61-3.625-.08-.151-.298-.172-.419-.121a.294.294 0 00-.167.338c.283 1.1.591 2.277.98 3.433.802 2.393 1.762 4.099 3.008 5.37.727.743 1.586 1.293 2.469 1.843.863.53 1.626 1.03 2.206 1.712l.01.11c-.358 1.5-.697 3.004-1.045 4.509-.177.762-.353 1.524-.54 2.281-.005-.015-.005-.03-.01-.045-.242-1.353-.621-2.373-1.197-3.206-.555-.812-1.302-1.463-1.882-1.938-.268-.217-.55-.434-.823-.646l-.01-.01c-1.116-.858-2.267-1.752-2.943-3.019-.076-.141-.268-.151-.369-.106a.27.27 0 00-.151.308c.222.929.47 1.913.782 2.887.646 2.01 1.424 3.443 2.443 4.508.596.621 1.298 1.08 2.03 1.535.671.419 1.262.813 1.726 1.338a53.458 53.458 0 01-1.54 4.952 33.14 33.14 0 01-1.771 3.962l.302.753a30.619 30.619 0 001.586-3.276c1.176-2.853 1.983-5.836 2.695-8.82l.288-1.221c.838-.07 1.656.106 2.56.333.959.242 1.897.454 2.907.424 1.726-.05 3.604-.651 5.896-1.893 1.111-.6 2.186-1.277 3.185-1.913a.326.326 0 00.137-.353c-.036-.137-.197-.288-.369-.233-1.656.545-3.331.318-4.957.101a33.147 33.147 0 00-1.206-.151c-.869-.091-2.015-.167-3.165.066-1.182.242-2.383.822-3.781 1.827a28.63 28.63 0 00-.97.732c.465-2.03.924-4.064 1.464-6.078l.08-.116c.9-.465 1.844-.646 2.888-.823 1.076-.177 2.13-.379 3.191-.838 1.817-.787 3.639-2.176 5.744-4.366 1.02-1.06 1.979-2.176 2.873-3.226.101-.116.116-.278.045-.389-.075-.116-.282-.197-.444-.07-1.615 1.246-3.448 1.741-5.225 2.23-.434.117-.883.243-1.322.374-.944.283-2.176.702-3.332 1.424-1.186.742-2.307 1.822-3.518 3.392-.162.212-.324.43-.485.646.757-2.544 1.696-5.043 2.968-7.37.046-.116.101-.212.162-.313zm8.354-7.229c-.762 1.08-1.57 2-2.398 2.721-.984.858-2.059 1.434-2.983 1.888l-.167.081c-.51.247-1.07.52-1.615.843 1.065-1.292 2.373-2.287 3.64-3.2.131-.096.257-.187.388-.278l.031-.02c.747-.535 1.519-1.09 2.251-1.701a15.267 15.267 0 001.777-1.732c-.313.495-.616.96-.924 1.398zm-5.194.94c1.262-1.485 2.887-2.47 4.457-3.428.555-.339 1.131-.687 1.681-1.055.52-.349.985-.687 1.398-1.025-.353.6-.706 1.15-1.065 1.666a13.827 13.827 0 01-2.312 2.554c-.782.676-1.63 1.287-2.448 1.873-.924.661-1.878 1.348-2.756 2.14a14.73 14.73 0 00-1.156 1.161c.464-1.17 1.16-2.67 2.201-3.887zm-10.005 15.77L90.587 38c-.762-.469-1.635-1.06-2.362-1.862-.616-.682-1.171-1.51-1.651-2.469a16.224 16.224 0 01-.49-1.07c.339.505.737.995 1.202 1.48.545.575 1.146 1.11 1.726 1.63l.323.292c.95.854 1.924 1.777 2.63 2.898-.414-.303-.843-.57-1.242-.813zm.843-.748c-.652-.737-1.389-1.403-2.1-2.044-.636-.57-1.288-1.156-1.873-1.792a10.214 10.214 0 01-1.605-2.322c-.213-.43-.415-.884-.606-1.373.303.307.64.615 1.03.938.434.359.888.707 1.332 1.04 1.252.95 2.55 1.934 3.408 3.272.686 1.07 1.02 2.317 1.211 3.3a10.648 10.648 0 00-.797-1.019zm-2.363 9.672l-.111-.07c-.62-.39-1.338-.879-1.933-1.545a9.118 9.118 0 01-1.343-2.065 16.517 16.517 0 01-.323-.727c.252.369.545.727.878 1.086.45.48.939.928 1.414 1.363l.262.242c.752.691 1.52 1.434 2.09 2.332-.313-.227-.636-.429-.934-.616zm.702-.636c-.53-.62-1.136-1.17-1.722-1.706-.52-.474-1.055-.964-1.53-1.494a8.241 8.241 0 01-1.302-1.944 14.1 14.1 0 01-.454-1.065c.232.232.49.475.778.717.353.298.731.59 1.09.868 1.025.788 2.085 1.605 2.781 2.726.535.858.803 1.863.954 2.676a8.628 8.628 0 00-.595-.778zm7.128-4.13c1.534-.393 3.069-.18 4.558.021.525.07 1.07.146 1.605.192.485.04.929.055 1.348.045-.5.243-.974.45-1.439.626a9.437 9.437 0 01-2.736.591c-.838.056-1.68.02-2.504-.015-.923-.04-1.872-.08-2.831.005-.44.04-.854.1-1.252.192.863-.621 2.019-1.338 3.25-1.656zm.408 2.08l.41.016h.014c.748.03 1.515.066 2.287.03.657-.03 1.272-.11 1.868-.247a15.75 15.75 0 01-1.151.48c-1.02.378-1.984.605-2.877.67-1.055.077-2.035-.125-2.852-.327l-.147-.036a16.423 16.423 0 00-1.398-.308c1.297-.343 2.605-.328 3.846-.277zm.985-11.352c1.524-1.04 3.205-1.5 4.836-1.944a39.405 39.405 0 001.752-.505 14.8 14.8 0 001.448-.54c-.474.46-.929.869-1.383 1.247a13.05 13.05 0 01-2.746 1.752c-.873.414-1.777.742-2.655 1.06-.985.358-2.004.727-2.994 1.222-.46.227-.883.469-1.282.732.747-.97 1.787-2.176 3.024-3.024zm.98 1.837l.448-.161c.798-.288 1.626-.591 2.429-.954a13.983 13.983 0 001.938-1.06c-.384.358-.757.691-1.131.999-.979.808-1.948 1.444-2.872 1.888-1.095.525-2.186.752-3.11.909l-.166.025a19.02 19.02 0 00-1.58.308c1.297-.904 2.705-1.46 4.043-1.954zm-5.79-4.74l-.102-.131c-.575-.737-1.232-1.64-1.686-2.767-.384-.954-.671-2.074-.853-3.331a24.874 24.874 0 01-.162-1.5c.177.697.414 1.389.717 2.09.354.813.757 1.59 1.156 2.343l.222.424c.662 1.267 1.323 2.625 1.666 4.164-.308-.47-.651-.898-.959-1.292zm1.453.707a13.723 13.723 0 00-.454-1.404c-.4-1.034-.904-1.994-1.389-2.922-.434-.823-.878-1.676-1.246-2.57-.41-1-.697-2.06-.849-3.145a24.562 24.562 0 01-.181-1.852c.197.439.434.893.706 1.373.303.525.636 1.05.955 1.55.903 1.423 1.837 2.892 2.261 4.694.338 1.454.298 3.05.197 4.276zM52.1 64.786h1.52l-1.388 6.542h3.766l-.278 1.343h-5.295l1.676-7.885zm9.718 7.996c-.56 0-1.025-.111-1.383-.328a1.996 1.996 0 01-.793-.884 2.947 2.947 0 01-.257-1.226c0-.47.086-.914.262-1.338a3.497 3.497 0 013.291-2.186c.56 0 1.025.111 1.384.328.358.222.626.515.792.879.172.368.258.777.258 1.231 0 .47-.086.914-.263 1.338a3.584 3.584 0 01-.737 1.13 3.495 3.495 0 01-2.554 1.056zm.222-1.267c.227 0 .45-.05.666-.152.212-.1.404-.247.57-.434.167-.186.299-.409.4-.666.1-.253.151-.53.151-.828a1.8 1.8 0 00-.126-.707 1.047 1.047 0 00-.379-.474 1.067 1.067 0 00-.605-.167c-.233 0-.45.05-.662.152a1.805 1.805 0 00-.57.434 2.26 2.26 0 00-.555 1.504c0 .263.04.495.126.697.086.202.212.363.378.474.167.111.369.167.606.167zm8.532 1.268c-.475 0-.919-.076-1.338-.233a2.439 2.439 0 01-1.004-.666l.742-.934c.282.243.57.43.868.56.298.132.596.192.898.192.207 0 .384-.03.535-.09a.804.804 0 00.344-.248.57.57 0 00.12-.358.429.429 0 00-.241-.404 4.321 4.321 0 00-.768-.283 8.789 8.789 0 01-.949-.358 1.408 1.408 0 01-.55-.404.98.98 0 01-.177-.596c0-.409.116-.772.349-1.095.232-.323.55-.576.944-.762a3.064 3.064 0 011.327-.278c.424 0 .798.066 1.131.197.333.131.631.333.889.606l-.788.898a2.68 2.68 0 00-.681-.484 1.69 1.69 0 00-.717-.152c-.192 0-.364.025-.515.081a.807.807 0 00-.359.242.576.576 0 00-.13.389c0 .166.07.288.206.363.136.076.374.167.717.268.414.116.757.237 1.02.369.267.126.464.277.6.454.132.177.202.399.202.666 0 .404-.11.757-.333 1.065-.222.308-.535.55-.934.727a3.522 3.522 0 01-1.408.268zm15.048-7.997h1.368l1.145 7.885h-1.575l-.196-1.964h-2.62l-1.035 1.964h-1.575l4.487-7.885zm.62 4.841l-.313-3.1-1.63 3.1h1.944zm6.598-2.721h1.343l-.232 1.075c.192-.247.414-.46.671-.63a3.152 3.152 0 011.762-.53c.338 0 .606.06.788.176a.941.941 0 01.393.48c.076.201.116.423.116.676 0 .151-.01.308-.035.46-.02.15-.05.312-.076.474l-.767 3.589h-1.49l.687-3.216a2.064 2.064 0 00.076-.58c0-.258-.055-.444-.171-.566a.605.605 0 00-.46-.181c-.177 0-.368.05-.575.151a2.394 2.394 0 00-.591.42 2.507 2.507 0 00-.464.61l-.722 3.362H91.6l1.237-5.77zm9.85 8.244c-.606 0-1.096-.107-1.475-.319a2.314 2.314 0 01-.883-.893l.979-.788a1.6 1.6 0 00.647.647c.282.156.605.232.964.232.287 0 .565-.056.833-.172.267-.11.499-.288.706-.525a1.93 1.93 0 00.414-.913l.157-.727a2.595 2.595 0 01-.929.807 2.369 2.369 0 01-1.106.283c-.408 0-.757-.106-1.05-.313a1.923 1.923 0 01-.661-.838 3.023 3.023 0 01-.222-1.176c0-.48.086-.944.263-1.378a3.702 3.702 0 011.776-1.964 2.76 2.76 0 011.247-.293c.429 0 .783.101 1.06.303.278.202.485.475.616.808l.212-1.025h1.313l-1.187 5.507a3.11 3.11 0 01-.711 1.47 3.611 3.611 0 01-1.298.938 4.204 4.204 0 01-1.665.329zm1.08-3.554c.146 0 .293-.026.439-.081a2.05 2.05 0 00.787-.55c.112-.127.207-.258.288-.39l.288-1.377a1.374 1.374 0 00-.212-.59 1.227 1.227 0 00-.404-.39 1.029 1.029 0 00-.525-.136 1.33 1.33 0 00-.686.192 2.137 2.137 0 00-.576.495 2.44 2.44 0 00-.399.686 2.186 2.186 0 00-.146.778c0 .247.05.474.146.686.096.212.232.379.404.495a.973.973 0 00.596.182zm9.238 1.186c-.49 0-.914-.106-1.273-.313a2.095 2.095 0 01-.822-.868c-.192-.369-.283-.788-.283-1.257 0-.475.091-.924.278-1.353a3.53 3.53 0 01.777-1.126 3.66 3.66 0 011.166-.767 3.682 3.682 0 011.444-.283c.424 0 .787.06 1.1.187.313.126.551.308.722.545.172.237.258.53.258.874 0 .61-.278 1.07-.838 1.388-.561.318-1.399.474-2.514.474-.222 0-.465-.005-.722-.015-.258-.01-.54-.03-.843-.06l.187-.934c.267.02.509.04.732.05.222.01.439.015.656.015.479 0 .863-.03 1.136-.096.277-.065.479-.161.605-.282a.578.578 0 00.187-.434.528.528 0 00-.111-.354.695.695 0 00-.303-.207 1.388 1.388 0 00-.459-.07c-.288 0-.555.065-.793.201a2.036 2.036 0 00-.626.55c-.176.233-.313.5-.409.798a3.114 3.114 0 00-.146.95c0 .247.04.469.126.67a.998.998 0 00.384.465c.172.111.389.162.656.162.298 0 .576-.071.838-.212.263-.142.475-.339.626-.59l1.176.368c-.192.297-.444.56-.757.787a4.023 4.023 0 01-1.02.54 3.399 3.399 0 01-1.135.197zm7.683 0c-.369 0-.657-.085-.864-.262-.202-.177-.303-.424-.303-.752a1.5 1.5 0 01.016-.207l.03-.217 1.444-6.78h1.479l-1.323 6.26c-.005.035-.015.076-.015.111-.005.035-.005.076-.005.111 0 .303.151.454.454.454.081 0 .177-.015.283-.045.106-.03.207-.066.303-.111l-.046 1.13a3.04 3.04 0 01-.721.223c-.273.05-.515.085-.732.085zm6.931.001c-.475 0-.919-.076-1.338-.233a2.444 2.444 0 01-1.005-.666l.742-.934c.283.243.571.43.869.56.298.132.595.192.898.192.207 0 .384-.03.535-.09a.805.805 0 00.344-.248.574.574 0 00.121-.358.429.429 0 00-.243-.404 4.307 4.307 0 00-.767-.283 8.73 8.73 0 01-.949-.358 1.408 1.408 0 01-.55-.404.981.981 0 01-.177-.596c0-.409.116-.772.348-1.095.233-.323.551-.576.944-.762a3.065 3.065 0 011.328-.278c.424 0 .798.066 1.131.197.333.131.631.333.888.606l-.787.898a2.678 2.678 0 00-.682-.484 1.688 1.688 0 00-.716-.152c-.192 0-.364.025-.515.081a.807.807 0 00-.359.242.575.575 0 00-.131.389c0 .166.071.288.207.363.136.076.373.167.717.268a5.89 5.89 0 011.019.369c.268.126.465.277.601.454.131.177.202.399.202.666 0 .404-.111.757-.333 1.065-.222.308-.535.55-.934.727a3.503 3.503 0 01-1.408.268zm5.977-.112l.343-1.6h1.222l-.344 1.6h-1.221z" fill="#1B3764"/></svg>