<svg width="30" height="31" fill="none" xmlns="http://www.w3.org/2000/svg"><g clip-path="url(#clip0_1_1433)"><path d="M18.813 6.75a6.25 6.25 0 014.937 4.938M18.812 1.75a11.25 11.25 0 019.938 9.925M27.5 21.65v3.75a2.5 2.5 0 01-2.725 2.5 24.737 24.737 0 01-10.787-3.837 24.376 24.376 0 01-7.5-7.5A24.737 24.737 0 012.65 5.725 2.5 2.5 0 015.138 3h3.75a2.5 2.5 0 012.5 2.15c.158 1.2.451 2.378.874 3.512A2.5 2.5 0 0111.7 11.3l-1.587 1.587a20 20 0 007.5 7.5L19.2 18.8a2.5 2.5 0 012.637-.563 16.05 16.05 0 003.513.876 2.5 2.5 0 012.15 2.537z" stroke="#FFCA42" stroke-width="2" stroke-linecap="round" stroke-linejoin="round"/></g><defs><clipPath id="clip0_1_1433"><path fill="#fff" transform="translate(0 .5)" d="M0 0h30v30H0z"/></clipPath></defs></svg>