<svg width="130" height="130" fill="none" xmlns="http://www.w3.org/2000/svg"><path d="M130 0H0v130h130V0z" fill="#fff"/><path d="M19.92 16H16v3.92h3.92V16zm3.92 0h-3.92v3.92h3.92V16zm3.92 0h-3.92v3.92h3.92V16z" fill="#000"/><path d="M31.68 16h-3.92v3.92h3.92V16zm3.92 0h-3.92v3.92h3.92V16zm3.92 0H35.6v3.92h3.92V16z" fill="#000"/><path d="M43.44 16h-3.92v3.92h3.92V16zm7.84 0h-3.92v3.92h3.92V16zm3.92 0h-3.92v3.92h3.92V16zm7.84 0h-3.92v3.92h3.92V16z" fill="#000"/><path d="M66.96 16h-3.92v3.92h3.92V16zm3.92 0h-3.92v3.92h3.92V16zm11.76 0h-3.92v3.92h3.92V16zm7.84 0h-3.92v3.92h3.92V16zm3.92 0h-3.92v3.92h3.92V16zm3.92 0H94.4v3.92h3.92V16z" fill="#000"/><path d="M102.24 16h-3.92v3.92h3.92V16zm3.92 0h-3.92v3.92h3.92V16zm3.92 0h-3.92v3.92h3.92V16zm3.92 0h-3.92v3.92H114V16zm-94.08 3.92H16v3.92h3.92v-3.92zm23.52 0h-3.92v3.92h3.92v-3.92zm11.76 0h-3.92v3.92h3.92v-3.92zm7.84 0h-3.92v3.92h3.92v-3.92zm3.92 0h-3.92v3.92h3.92v-3.92zm15.68 0h-3.92v3.92h3.92v-3.92zm7.84 0h-3.92v3.92h3.92v-3.92zm23.52 0h-3.92v3.92H114v-3.92zm-94.08 3.92H16v3.92h3.92v-3.92zm7.84 0h-3.92v3.92h3.92v-3.92z" fill="#000"/><path d="M31.68 23.84h-3.92v3.92h3.92v-3.92zm3.92 0h-3.92v3.92h3.92v-3.92zm7.84 0h-3.92v3.92h3.92v-3.92zm11.76 0h-3.92v3.92h3.92v-3.92zm7.84 0h-3.92v3.92h3.92v-3.92zm7.84 0h-3.92v3.92h3.92v-3.92zm3.92 0h-3.92v3.92h3.92v-3.92zm3.92 0H74.8v3.92h3.92v-3.92zm3.92 0h-3.92v3.92h3.92v-3.92zm7.84 0h-3.92v3.92h3.92v-3.92zm7.84 0H94.4v3.92h3.92v-3.92z" fill="#000"/><path d="M102.24 23.84h-3.92v3.92h3.92v-3.92zm3.92 0h-3.92v3.92h3.92v-3.92zm7.84 0h-3.92v3.92H114v-3.92zm-94.08 3.92H16v3.92h3.92v-3.92zm7.84 0h-3.92v3.92h3.92v-3.92z" fill="#000"/><path d="M31.68 27.76h-3.92v3.92h3.92v-3.92zm3.92 0h-3.92v3.92h3.92v-3.92zm7.84 0h-3.92v3.92h3.92v-3.92zm19.6 0h-3.92v3.92h3.92v-3.92zm11.76 0h-3.92v3.92h3.92v-3.92zm7.84 0h-3.92v3.92h3.92v-3.92zm7.84 0h-3.92v3.92h3.92v-3.92zm7.84 0H94.4v3.92h3.92v-3.92z" fill="#000"/><path d="M102.24 27.76h-3.92v3.92h3.92v-3.92zm3.92 0h-3.92v3.92h3.92v-3.92zm7.84 0h-3.92v3.92H114v-3.92zm-94.08 3.92H16v3.92h3.92v-3.92zm7.84 0h-3.92v3.92h3.92v-3.92z" fill="#000"/><path d="M31.68 31.68h-3.92v3.92h3.92v-3.92zm3.92 0h-3.92v3.92h3.92v-3.92zm7.84 0h-3.92v3.92h3.92v-3.92zm7.84 0h-3.92v3.92h3.92v-3.92zm15.68 0h-3.92v3.92h3.92v-3.92zm3.92 0h-3.92v3.92h3.92v-3.92zm3.92 0h-3.92v3.92h3.92v-3.92zm3.92 0H74.8v3.92h3.92v-3.92zm3.92 0h-3.92v3.92h3.92v-3.92zm7.84 0h-3.92v3.92h3.92v-3.92zm7.84 0H94.4v3.92h3.92v-3.92z" fill="#000"/><path d="M102.24 31.68h-3.92v3.92h3.92v-3.92zm3.92 0h-3.92v3.92h3.92v-3.92zm7.84 0h-3.92v3.92H114v-3.92zM19.92 35.6H16v3.92h3.92V35.6zm23.52 0h-3.92v3.92h3.92V35.6zm23.52 0h-3.92v3.92h3.92V35.6zm11.76 0H74.8v3.92h3.92V35.6zm11.76 0h-3.92v3.92h3.92V35.6zm23.52 0h-3.92v3.92H114V35.6zm-94.08 3.92H16v3.92h3.92v-3.92zm3.92 0h-3.92v3.92h3.92v-3.92zm3.92 0h-3.92v3.92h3.92v-3.92z" fill="#000"/><path d="M31.68 39.52h-3.92v3.92h3.92v-3.92zm3.92 0h-3.92v3.92h3.92v-3.92zm3.92 0H35.6v3.92h3.92v-3.92z" fill="#000"/><path d="M43.44 39.52h-3.92v3.92h3.92v-3.92zm7.84 0h-3.92v3.92h3.92v-3.92zm7.84 0H55.2v3.92h3.92v-3.92zm7.84 0h-3.92v3.92h3.92v-3.92zm7.84 0h-3.92v3.92h3.92v-3.92zm7.84 0h-3.92v3.92h3.92v-3.92zm7.84 0h-3.92v3.92h3.92v-3.92zm3.92 0h-3.92v3.92h3.92v-3.92zm3.92 0H94.4v3.92h3.92v-3.92z" fill="#000"/><path d="M102.24 39.52h-3.92v3.92h3.92v-3.92zm3.92 0h-3.92v3.92h3.92v-3.92zm3.92 0h-3.92v3.92h3.92v-3.92zm3.92 0h-3.92v3.92H114v-3.92zm-62.72 3.92h-3.92v3.92h3.92v-3.92zm11.76 0h-3.92v3.92h3.92v-3.92z" fill="#000"/><path d="M66.96 43.44h-3.92v3.92h3.92v-3.92zm7.84 0h-3.92v3.92h3.92v-3.92zm3.92 0H74.8v3.92h3.92v-3.92zm3.92 0h-3.92v3.92h3.92v-3.92zm-62.72 3.92H16v3.92h3.92v-3.92zm11.76 0h-3.92v3.92h3.92v-3.92zm3.92 0h-3.92v3.92h3.92v-3.92zm3.92 0H35.6v3.92h3.92v-3.92z" fill="#000"/><path d="M43.44 47.36h-3.92v3.92h3.92v-3.92zm3.92 0h-3.92v3.92h3.92v-3.92zm3.92 0h-3.92v3.92h3.92v-3.92zm23.52 0h-3.92v3.92h3.92v-3.92zm7.84 0h-3.92v3.92h3.92v-3.92zm3.92 0h-3.92v3.92h3.92v-3.92zm3.92 0h-3.92v3.92h3.92v-3.92zm7.84 0H94.4v3.92h3.92v-3.92zm15.68 0h-3.92v3.92H114v-3.92zm-90.16 3.92h-3.92v3.92h3.92v-3.92zm3.92 0h-3.92v3.92h3.92v-3.92zm23.52 0h-3.92v3.92h3.92v-3.92zm3.92 0h-3.92v3.92h3.92v-3.92zm3.92 0H55.2v3.92h3.92v-3.92z" fill="#000"/><path d="M63.04 51.28h-3.92v3.92h3.92v-3.92z" fill="#000"/><path d="M66.96 51.28h-3.92v3.92h3.92v-3.92zm3.92 0h-3.92v3.92h3.92v-3.92zm3.92 0h-3.92v3.92h3.92v-3.92zm23.52 0H94.4v3.92h3.92v-3.92zm11.76 0h-3.92v3.92h3.92v-3.92zm3.92 0h-3.92v3.92H114v-3.92zM27.76 55.2h-3.92v3.92h3.92V55.2z" fill="#000"/><path d="M31.68 55.2h-3.92v3.92h3.92V55.2zm3.92 0h-3.92v3.92h3.92V55.2zm3.92 0H35.6v3.92h3.92V55.2z" fill="#000"/><path d="M43.44 55.2h-3.92v3.92h3.92V55.2zm3.92 0h-3.92v3.92h3.92V55.2zm7.84 0h-3.92v3.92h3.92V55.2zm7.84 0h-3.92v3.92h3.92V55.2z" fill="#000"/><path d="M66.96 55.2h-3.92v3.92h3.92V55.2zm23.52 0h-3.92v3.92h3.92V55.2zm7.84 0H94.4v3.92h3.92V55.2zm15.68 0h-3.92v3.92H114V55.2zm-94.08 3.92H16v3.92h3.92v-3.92zm15.68 0h-3.92v3.92h3.92v-3.92zm3.92 0H35.6v3.92h3.92v-3.92zm11.76 0h-3.92v3.92h3.92v-3.92z" fill="#000"/><path d="M63.04 59.12h-3.92v3.92h3.92v-3.92zm19.6 0h-3.92v3.92h3.92v-3.92zm7.84 0h-3.92v3.92h3.92v-3.92zm3.92 0h-3.92v3.92h3.92v-3.92zm19.6 0h-3.92v3.92H114v-3.92zm-94.08 3.92H16v3.92h3.92v-3.92zm3.92 0h-3.92v3.92h3.92v-3.92zm19.6 0h-3.92v3.92h3.92v-3.92zm7.84 0h-3.92v3.92h3.92v-3.92z" fill="#000"/><path d="M63.04 63.04h-3.92v3.92h3.92v-3.92z" fill="#000"/><path d="M66.96 63.04h-3.92v3.92h3.92v-3.92zm11.76 0H74.8v3.92h3.92v-3.92zm7.84 0h-3.92v3.92h3.92v-3.92zm3.92 0h-3.92v3.92h3.92v-3.92zm7.84 0H94.4v3.92h3.92v-3.92zm11.76 0h-3.92v3.92h3.92v-3.92zm-82.32 3.92h-3.92v3.92h3.92v-3.92zm7.84 0h-3.92v3.92h3.92v-3.92zm3.92 0H35.6v3.92h3.92v-3.92zm11.76 0h-3.92v3.92h3.92v-3.92zm7.84 0H55.2v3.92h3.92v-3.92z" fill="#000"/><path d="M63.04 66.96h-3.92v3.92h3.92v-3.92z" fill="#000"/><path d="M66.96 66.96h-3.92v3.92h3.92v-3.92zm3.92 0h-3.92v3.92h3.92v-3.92zm11.76 0h-3.92v3.92h3.92v-3.92zm7.84 0h-3.92v3.92h3.92v-3.92zm3.92 0h-3.92v3.92h3.92v-3.92zm3.92 0H94.4v3.92h3.92v-3.92z" fill="#000"/><path d="M102.24 66.96h-3.92v3.92h3.92v-3.92zm11.76 0h-3.92v3.92H114v-3.92zm-82.32 3.92h-3.92v3.92h3.92v-3.92zm3.92 0h-3.92v3.92h3.92v-3.92zm3.92 0H35.6v3.92h3.92v-3.92z" fill="#000"/><path d="M43.44 70.88h-3.92v3.92h3.92v-3.92zm3.92 0h-3.92v3.92h3.92v-3.92zm3.92 0h-3.92v3.92h3.92v-3.92zm7.84 0H55.2v3.92h3.92v-3.92zm11.76 0h-3.92v3.92h3.92v-3.92zm7.84 0H74.8v3.92h3.92v-3.92zm3.92 0h-3.92v3.92h3.92v-3.92zm7.84 0h-3.92v3.92h3.92v-3.92zm11.76 0h-3.92v3.92h3.92v-3.92zm7.84 0h-3.92v3.92h3.92v-3.92zm3.92 0h-3.92v3.92H114v-3.92zM27.76 74.8h-3.92v3.92h3.92V74.8z" fill="#000"/><path d="M31.68 74.8h-3.92v3.92h3.92V74.8zm7.84 0H35.6v3.92h3.92V74.8zm11.76 0h-3.92v3.92h3.92V74.8zm7.84 0H55.2v3.92h3.92V74.8z" fill="#000"/><path d="M63.04 74.8h-3.92v3.92h3.92V74.8zm19.6 0h-3.92v3.92h3.92V74.8zm7.84 0h-3.92v3.92h3.92V74.8zm3.92 0h-3.92v3.92h3.92V74.8zm11.76 0h-3.92v3.92h3.92V74.8zm3.92 0h-3.92v3.92h3.92V74.8zm-86.24 3.92h-3.92v3.92h3.92v-3.92zm3.92 0h-3.92v3.92h3.92v-3.92z" fill="#000"/><path d="M31.68 78.72h-3.92v3.92h3.92v-3.92zm3.92 0h-3.92v3.92h3.92v-3.92zm7.84 0h-3.92v3.92h3.92v-3.92zm7.84 0h-3.92v3.92h3.92v-3.92zm11.76 0h-3.92v3.92h3.92v-3.92zm7.84 0h-3.92v3.92h3.92v-3.92zm3.92 0h-3.92v3.92h3.92v-3.92zm7.84 0h-3.92v3.92h3.92v-3.92zm3.92 0h-3.92v3.92h3.92v-3.92zm3.92 0h-3.92v3.92h3.92v-3.92zm3.92 0h-3.92v3.92h3.92v-3.92zm3.92 0H94.4v3.92h3.92v-3.92zm7.84 0h-3.92v3.92h3.92v-3.92zm-54.88 3.92h-3.92v3.92h3.92v-3.92zm7.84 0H55.2v3.92h3.92v-3.92z" fill="#000"/><path d="M63.04 82.64h-3.92v3.92h3.92v-3.92z" fill="#000"/><path d="M66.96 82.64h-3.92v3.92h3.92v-3.92zm7.84 0h-3.92v3.92h3.92v-3.92zm7.84 0h-3.92v3.92h3.92v-3.92zm15.68 0H94.4v3.92h3.92v-3.92z" fill="#000"/><path d="M102.24 82.64h-3.92v3.92h3.92v-3.92zm3.92 0h-3.92v3.92h3.92v-3.92zm7.84 0h-3.92v3.92H114v-3.92zm-94.08 3.92H16v3.92h3.92v-3.92zm3.92 0h-3.92v3.92h3.92v-3.92zm3.92 0h-3.92v3.92h3.92v-3.92z" fill="#000"/><path d="M31.68 86.56h-3.92v3.92h3.92v-3.92zm3.92 0h-3.92v3.92h3.92v-3.92zm3.92 0H35.6v3.92h3.92v-3.92z" fill="#000"/><path d="M43.44 86.56h-3.92v3.92h3.92v-3.92zm7.84 0h-3.92v3.92h3.92v-3.92zm7.84 0H55.2v3.92h3.92v-3.92zm7.84 0h-3.92v3.92h3.92v-3.92zm15.68 0h-3.92v3.92h3.92v-3.92zm7.84 0h-3.92v3.92h3.92v-3.92zm7.84 0H94.4v3.92h3.92v-3.92z" fill="#000"/><path d="M102.24 86.56h-3.92v3.92h3.92v-3.92zm3.92 0h-3.92v3.92h3.92v-3.92zm3.92 0h-3.92v3.92h3.92v-3.92zm3.92 0h-3.92v3.92H114v-3.92zm-94.08 3.92H16v3.92h3.92v-3.92zm23.52 0h-3.92v3.92h3.92v-3.92zm7.84 0h-3.92v3.92h3.92v-3.92zm7.84 0H55.2v3.92h3.92v-3.92zm7.84 0h-3.92v3.92h3.92v-3.92zm15.68 0h-3.92v3.92h3.92v-3.92zm15.68 0H94.4v3.92h3.92v-3.92zm7.84 0h-3.92v3.92h3.92v-3.92zm7.84 0h-3.92v3.92H114v-3.92zM19.92 94.4H16v3.92h3.92V94.4zm7.84 0h-3.92v3.92h3.92V94.4z" fill="#000"/><path d="M31.68 94.4h-3.92v3.92h3.92V94.4zm3.92 0h-3.92v3.92h3.92V94.4zm7.84 0h-3.92v3.92h3.92V94.4zm7.84 0h-3.92v3.92h3.92V94.4zm3.92 0h-3.92v3.92h3.92V94.4zm15.68 0h-3.92v3.92h3.92V94.4zm3.92 0h-3.92v3.92h3.92V94.4zm7.84 0h-3.92v3.92h3.92V94.4zm3.92 0h-3.92v3.92h3.92V94.4zm3.92 0h-3.92v3.92h3.92V94.4zm3.92 0h-3.92v3.92h3.92V94.4zm3.92 0H94.4v3.92h3.92V94.4zm11.76 0h-3.92v3.92h3.92V94.4zm3.92 0h-3.92v3.92H114V94.4zm-94.08 3.92H16v3.92h3.92v-3.92z" fill="#000"/><path d="M27.76 98.32h-3.92v3.92h3.92v-3.92z" fill="#000"/><path d="M31.68 98.32h-3.92v3.92h3.92v-3.92zm3.92 0h-3.92v3.92h3.92v-3.92zm7.84 0h-3.92v3.92h3.92v-3.92zm7.84 0h-3.92v3.92h3.92v-3.92zm7.84 0H55.2v3.92h3.92v-3.92zm11.76 0h-3.92v3.92h3.92v-3.92zm3.92 0h-3.92v3.92h3.92v-3.92zm3.92 0H74.8v3.92h3.92v-3.92zm11.76 0h-3.92v3.92h3.92v-3.92zm-70.56 3.92H16v3.92h3.92v-3.92zm7.84 0h-3.92v3.92h3.92v-3.92z" fill="#000"/><path d="M31.68 102.24h-3.92v3.92h3.92v-3.92zm3.92 0h-3.92v3.92h3.92v-3.92zm7.84 0h-3.92v3.92h3.92v-3.92zm11.76 0h-3.92v3.92h3.92v-3.92zm3.92 0H55.2v3.92h3.92v-3.92z" fill="#000"/><path d="M63.04 102.24h-3.92v3.92h3.92v-3.92z" fill="#000"/><path d="M66.96 102.24h-3.92v3.92h3.92v-3.92zm3.92 0h-3.92v3.92h3.92v-3.92zm7.84 0H74.8v3.92h3.92v-3.92zm3.92 0h-3.92v3.92h3.92v-3.92zm7.84 0h-3.92v3.92h3.92v-3.92zm3.92 0h-3.92v3.92h3.92v-3.92zm11.76 0h-3.92v3.92h3.92v-3.92zm3.92 0h-3.92v3.92h3.92v-3.92zm3.92 0h-3.92v3.92H114v-3.92zm-94.08 3.92H16v3.92h3.92v-3.92zm23.52 0h-3.92v3.92h3.92v-3.92zm23.52 0h-3.92v3.92h3.92v-3.92zm11.76 0H74.8v3.92h3.92v-3.92zm19.6 0H94.4v3.92h3.92v-3.92zm7.84 0h-3.92v3.92h3.92v-3.92zm3.92 0h-3.92v3.92h3.92v-3.92zm3.92 0h-3.92v3.92H114v-3.92zm-94.08 3.92H16V114h3.92v-3.92zm3.92 0h-3.92V114h3.92v-3.92zm3.92 0h-3.92V114h3.92v-3.92z" fill="#000"/><path d="M31.68 110.08h-3.92V114h3.92v-3.92zm3.92 0h-3.92V114h3.92v-3.92zm3.92 0H35.6V114h3.92v-3.92z" fill="#000"/><path d="M43.44 110.08h-3.92V114h3.92v-3.92zm7.84 0h-3.92V114h3.92v-3.92zm11.76 0h-3.92V114h3.92v-3.92zm15.68 0H74.8V114h3.92v-3.92zm7.84 0h-3.92V114h3.92v-3.92zm15.68 0h-3.92V114h3.92v-3.92zm11.76 0h-3.92V114H114v-3.92z" fill="#000"/></svg>