<svg xmlns="http://www.w3.org/2000/svg"><symbol id="logo" viewBox="0 0 26 29"><path d="M4.313 22.9H25.25V.5H4.256C2.322.506.756 2.087.75 4.04v20.65c0 2.065 1.605 3.809 3.506 3.809H25.25v-1.867H4.256c-.867 0-1.657-.925-1.657-1.942 0-.97.785-1.791 1.714-1.791zM6.297 2.386h5.547v10.081L9.048 9.988l-2.75 2.465V2.386zM2.6 4.054a1.674 1.674 0 011.657-1.687h2.041-1.85v12.6h1.828l2.779-2.489 2.807 2.489h1.831v-12.6h9.708v18.666H4.313c-.601 0-1.192.159-1.713.46V4.053z"/></symbol><symbol id="facebook" viewBox="0 0 10 17"><path d="M8.719 9.5H6.375v7H3.25v-7H.687V6.625H3.25V4.406C3.25 1.906 4.75.5 7.031.5c1.094 0 2.25.219 2.25.219v2.469H8c-1.25 0-1.625.75-1.625 1.562v1.875h2.781L8.72 9.5z"/></symbol><symbol id="twitter" viewBox="0 0 16 13"><path d="M14.344 3.25v.438C14.344 8.03 11.063 13 5.03 13c-1.874 0-3.592-.531-5.03-1.469.25.031.5.063.781.063a6.597 6.597 0 004.063-1.406A3.265 3.265 0 011.78 7.905c.219.032.407.063.625.063.281 0 .594-.063.844-.125A3.285 3.285 0 01.625 4.625v-.031c.438.25.969.375 1.5.406A3.228 3.228 0 01.656 2.281c0-.625.156-1.187.438-1.656a9.52 9.52 0 006.781 3.438c-.063-.25-.094-.5-.094-.75A3.28 3.28 0 0111.063.03c.937 0 1.78.375 2.406 1.032A6.93 6.93 0 0015.53.25a3.206 3.206 0 01-1.437 1.813 6.151 6.151 0 001.875-.5c-.438.656-1 1.218-1.625 1.687z"/></symbol><symbol id="linkedin" viewBox="0 0 14 15"><path d="M3.125 14.5H.219V5.156h2.906V14.5zM1.656 3.906C.75 3.906 0 3.125 0 2.187 0 1.281.75.532 1.656.532c.938 0 1.688.75 1.688 1.656 0 .938-.75 1.72-1.688 1.72zM13.97 14.5h-2.875V9.969c0-1.094-.031-2.469-1.531-2.469s-1.72 1.156-1.72 2.375V14.5H4.939V5.156h2.78v1.282h.032c.406-.72 1.344-1.5 2.75-1.5 2.938 0 3.5 1.937 3.5 4.437V14.5h-.031z"/></symbol><symbol id="cart" viewBox="0 0 24 24"><path d="M1 1.75h4l2.68 13.39a2 2 0 002 1.61h9.72a2 2 0 002-1.61L23 6.75H6m4 15a1 1 0 11-2 0 1 1 0 012 0zm11 0a1 1 0 11-2 0 1 1 0 012 0z" stroke-width="2" stroke-linecap="round" stroke-linejoin="round"/></symbol></svg>