<svg version="1.0" xmlns="http://www.w3.org/2000/svg" width="789.333" height="789.333" viewBox="0 0 592 592"><path d="M148.9 8.4c-.2.2-2 .6-3.9.9-1.9.2-5.9 1.4-8.7 2.6-19.4 7.7-33.5 25.9-35.8 46.1-.9 7.3-.8 337.9 0 345 .7 6.4 3 13.9 5.7 19.3 1 2.1 1.6 4.3 1.2 4.9-.4.6-.3.8.2.5.6-.3 2.1 1.2 3.4 3.4 1.4 2.1 2.8 3.9 3.2 3.9.5 0 .8.7.8 1.7 0 .9.2 1.4.5 1.1.3-.3 2.3 1.1 4.3 3.1 4.6 4.5 8.5 7.2 14.2 9.8 6.2 2.8 8.2 3.6 10.3 3.8.9.2 1.8.3 2 .5 1.3 1.1 47.8 1.7 49.6.6.5-.4 1.2-.3 1.4.2.3.4 2.7.7 5.4.5 8.3-.3 23.2-.5 26.1-.4 3.9.3 8.2.3 12.2.2 15.1-.4 29.6.1 30.9 1.2 1.1.9 1.3.9.8 0-1-1.6 93.2-1.6 95.2 0 1.2.9 1.3.9.7 0-.5-1 1.5-1.3 8.6-1.3 11.4 0 12 0 16.1.1 1.7.1 5.2.1 7.7 0 10.7-.1 18.6-.2 19.8-.2 4.1.3 8.2.3 12.2.2 2.5-.1 16.8 0 31.7.1l27.3.3.1-12c.1-15 0-17.8-1.2-19-.6-.6-.9-.6-.9 0s-41.3.9-110.8.7c-60.9-.2-111.9-.3-113.4-.2-1.6 0-3.6.1-4.5.1-1.9 0-102.1.1-103.8.1-15-.5-27.4-14.2-27.7-30.8-.1-5 2.9-15.4 4.4-15.4.4 0 .8-.6.8-1.4 0-1.5 7.3-8 8.5-7.6.4.1 1.1-.4 1.5-1 2.2-3.6 7-3.7 177.8-3.6 92.1.1 167.8-.2 168.4-.5 1.1-.7 1.4-355.2.3-356.9-.6-.9-341.7-1.5-342.6-.6zm10.2 69.3c0 21.3-.1 39-.1 39.3-.4 2 0 15.2.5 16 .3.5.1 1-.5 1s-.8.5-.4 1.2c.7 1.1.9 7.7.4 10.3-.1.5-.2 1.4 0 2 .4 2.4.2 16.7-.3 17.2-.3.3-.2 1.6.3 2.9.6 1.4.6 2.6-.1 2.9-.5.4-.7 1-.4 1.4.2.5.5 15.9.5 34.4l.1 33.4 3-.2c1.6-.1 3.2.1 3.5.6.3.5 1.1.6 1.7.2 1.8-1.1 5.1-1 5.9.2.5.6.8.6.8 0s3-1 7.3-1c7.7 0 7 .4 16.6-8.2 1.9-1.7 3.9-2.9 4.5-2.6.5.4.6.1.1-.7-.4-.7-.3-1.5.3-1.9 1.5-.9 7.9-6.3 13.2-11.1 2.4-2.2 4.8-4 5.2-4 .4 0 .8-.7.8-1.5s.4-1.5 1-1.5c.5 0 2.8-1.8 5.1-4s4.5-4 4.8-4c.3 0 2.7 1.9 5.2 4.2 2.5 2.4 7.7 7 11.4 10.3 23.5 20.7 28 25 27.8 26.5-.1 1.3 0 1.3 1-.1 1.3-1.7 6.7-2.1 6.7-.5 0 .7.3.8.8.1.9-1.3 11.5-1.4 12.4 0 .5.7.8.7.8 0 0-.6.9-1.1 2-1.2 1.2-.1 1.8.3 1.4.9-.4.7 0 .7 1.3-.1 1.1-.6 2.3-.7 2.7-.4.6.7.7-7.4.6-48.6 0-19 .3-25.8 1.2-26.9.8-1 .9-1.3.1-.9-.8.5-1.1-10.9-1.1-45.3 0-34.9.2-45.9 1.1-45.3.9.5.9.3 0-.8-.8-1-1.2-6.7-1.2-17.7L307 38l5.8-.1c32.9-.3 148.3 0 148.9.4 1 .6.9 41.9-.1 43.5-.4.7-.3 1.2.2 1.2 1 0 .9 10.1-.2 11.8-.3.6-.3 1.3.1 1.5 1 .6.9 124.9 0 126.4-.4.7-.4 1.4 0 1.6 1 .6.9 60.9 0 62.4-.4.7-.4 1.4 0 1.6 1 .6.9 30-.1 31.6-.4.6-.3 1.1.1 1.1.7 0 .9 8.2.4 14.5-.1.7-52.5 1.1-156.8 1.1-143.4.1-157.3.3-162.3 1.8-3 .9-6.1 1.7-6.7 1.8-.7.1-1.3.5-1.3.9 0 .3-1 .9-2.2 1.3-1.3.3-2.5.7-2.7.8-.9.6-.6-71.7.2-73 .6-.7.6-1.2.1-1.2s-.9-3.7-.8-8.3c.1-6.4.4-8.1 1.5-7.9 1.1.2 1.1 0-.1-1-2.2-1.8-2.1-23.4.1-23 1.1.2 1.1 0-.1-1-2.1-1.8-2.1-11.4 0-11 1.3.2 1.3.1 0-1-2.1-1.8-2-11.4.1-11 1.1.2 1.1 0-.1-1-2.1-1.8-2.1-11.4 0-11 1.3.2 1.3.1 0-1-2.1-1.8-2-11.4.1-11 1.1.2 1.1 0-.1-1-2.1-1.8-2.1-11.4 0-11 1.3.2 1.3.1 0-1-2-1.7-2.3-3.7-.9-5.4.6-.8.7-1.4.3-1.4-.5 0-.9-3.7-.8-8.3.1-6.5.4-8.1 1.5-7.9 1.1.2 1.1 0-.1-1-1.8-1.6-2.1-11.3-.3-11.3.6 0 1.5-.4 2-.8.4-.5.3-.8-.2-.7-.6.1-1.4.2-2 .1-1.1-.1-1.2-25.1-.1-26.9.4-.7.4-1.2-.1-1.2-.4 0-.7-10-.7-22.3.1-21.8.2-22.4 2.7-27.2 3-5.9 6.6-9.9 11-12.2 4-2.1 13.9-4.3 15.1-3.3.4.5.8 18.3.7 39.7zm118-37.8c.7 8.6.2 72.8-.5 72.3-.5-.3-.6.1-.1.9.7 1.1 1.5 85.9.8 85.9-.1 0-1.3-1-2.6-2.3-1.4-1.2-4.6-4-7.2-6.2-2.6-2.2-6.2-5.4-7.9-7-1.7-1.7-6.3-5.7-10.1-9-3.9-3.3-8.7-7.6-10.8-9.5-6.5-5.9-4.6-6.7-20.8 8.1-4.1 3.7-8.4 7.6-9.6 8.6-10.6 9.3-14.9 13.1-16.9 15.1-1.3 1.3-2.4 1.9-2.5 1.5-.1-1.8 0-52.9.1-53.8.2-.6.2-1.2.1-1.5-.2-.5-.3-98.1-.2-102.7l.1-2.2 44 .1c39.6.1 44 .3 44.1 1.7z"/><path d="M145 174.4c0 .2.8 1 1.8 1.7 1.5 1.3 1.6 1.2.3-.4s-2.1-2.1-2.1-1.3zm62.5 57.6c-.3.5-.1 1 .4 1 .6 0 1.1-.5 1.1-1 0-.6-.2-1-.4-1-.3 0-.8.4-1.1 1zm-3.9 11.8c-.3.5.1.9.9.9s1.2-.4.9-.9c-.3-.4-.7-.8-.9-.8-.2 0-.6.4-.9.8zm-57.2 12c.4.3 1.4.7 2.2.8.9.1 1.3 0 1-.4-.4-.3-1.4-.7-2.2-.8-.9-.1-1.3 0-1 .4zm112.6 4.3c0 .5.5.7 1 .4.6-.3 1-.8 1-1.1 0-.2-.4-.4-1-.4-.5 0-1 .5-1 1.1zm-56 4c0 .5.5.7 1 .4.6-.3 1-.8 1-1.1 0-.2-.4-.4-1-.4-.5 0-1 .5-1 1.1zm-31.4 3.7c-.3.5.1.9.9.9s1.2-.4.9-.9c-.3-.4-.7-.8-.9-.8-.2 0-.6.4-.9.8zm41.7 4.7c0 .8.4 1.2.9.9.5-.3.6-1 .3-1.5-.9-1.3-1.2-1.1-1.2.6zM201.5 96c.3.5.8 1 1.1 1 .2 0 .4-.5.4-1 0-.6-.5-1-1.1-1-.5 0-.7.4-.4 1zm226 300c-.3.5-.1 1 .4 1 .6 0 1.1-.5 1.1-1 0-.6-.2-1-.4-1-.3 0-.8.4-1.1 1zm-216.2 87.5c0 .8.4 1.2.9.9.5-.3.6-1 .3-1.5-.9-1.3-1.2-1.1-1.2.6z"/></svg>